<svg xmlns="http://www.w3.org/2000/svg" xmlns:xlink="http://www.w3.org/1999/xlink" width="500" zoomAndPan="magnify" viewBox="0 0 375 374.999991" height="500" preserveAspectRatio="xMidYMid meet" version="1.0"><defs><clipPath id="id1"><path d="M 309 141 L 368.21875 141 L 368.21875 227 L 309 227 Z M 309 141 " clip-rule="nonzero"/></clipPath><clipPath id="id2"><path d="M 6.71875 199 L 84 199 L 84 362 L 6.71875 362 Z M 6.71875 199 " clip-rule="nonzero"/></clipPath><clipPath id="id3"><path d="M 136 199 L 173 199 L 173 366.953125 L 136 366.953125 Z M 136 199 " clip-rule="nonzero"/></clipPath><clipPath id="id4"><path d="M 162 199 L 210 199 L 210 366.953125 L 162 366.953125 Z M 162 199 " clip-rule="nonzero"/></clipPath><clipPath id="id5"><path d="M 198 199 L 238 199 L 238 366.953125 L 198 366.953125 Z M 198 199 " clip-rule="nonzero"/></clipPath><clipPath id="id6"><path d="M 125 7.703125 L 165 7.703125 L 165 102 L 125 102 Z M 125 7.703125 " clip-rule="nonzero"/></clipPath><clipPath id="id7"><path d="M 302 143 L 357.582031 143 L 357.582031 225 L 302 225 Z M 302 143 " clip-rule="nonzero"/></clipPath><clipPath id="id8"><path d="M 17.082031 199 L 90 199 L 90 352 L 17.082031 352 Z M 17.082031 199 " clip-rule="nonzero"/></clipPath><clipPath id="id9"><path d="M 128 18.011719 L 166 18.011719 L 166 107 L 128 107 Z M 128 18.011719 " clip-rule="nonzero"/></clipPath><clipPath id="id10"><path d="M 162 18.011719 L 240 18.011719 L 240 80 L 162 80 Z M 162 18.011719 " clip-rule="nonzero"/></clipPath></defs><path fill="rgb(100%, 100%, 100%)" d="M 350.363281 192.101562 C 350.363281 194.75 350.296875 197.394531 350.164062 200.039062 C 350.03125 202.679688 349.835938 205.320312 349.570312 207.953125 C 349.304688 210.589844 348.976562 213.214844 348.582031 215.832031 C 348.1875 218.449219 347.726562 221.058594 347.199219 223.652344 C 346.675781 226.25 346.085938 228.832031 345.429688 231.398438 C 344.777344 233.964844 344.058594 236.515625 343.277344 239.046875 C 342.492188 241.582031 341.648438 244.09375 340.742188 246.585938 C 339.835938 249.078125 338.867188 251.542969 337.835938 253.988281 C 336.804688 256.433594 335.714844 258.855469 334.5625 261.246094 C 333.410156 263.640625 332.199219 266.003906 330.929688 268.335938 C 329.660156 270.671875 328.332031 272.972656 326.949219 275.242188 C 325.5625 277.511719 324.121094 279.75 322.625 281.949219 C 321.128906 284.148438 319.578125 286.3125 317.976562 288.4375 C 316.371094 290.5625 314.714844 292.648438 313.003906 294.695312 C 311.296875 296.742188 309.539062 298.746094 307.730469 300.707031 C 305.921875 302.667969 304.0625 304.582031 302.160156 306.457031 C 300.253906 308.328125 298.304688 310.152344 296.308594 311.929688 C 294.3125 313.707031 292.273438 315.433594 290.191406 317.113281 C 288.109375 318.792969 285.988281 320.421875 283.824219 321.996094 C 281.660156 323.574219 279.460938 325.097656 277.21875 326.566406 C 274.980469 328.039062 272.707031 329.453125 270.394531 330.8125 C 268.085938 332.175781 265.742188 333.476562 263.367188 334.726562 C 260.992188 335.972656 258.585938 337.164062 256.152344 338.292969 C 253.71875 339.425781 251.253906 340.5 248.765625 341.511719 C 246.277344 342.523438 243.765625 343.476562 241.230469 344.367188 C 238.695312 345.261719 236.136719 346.089844 233.558594 346.859375 C 230.984375 347.625 228.386719 348.332031 225.773438 348.976562 C 223.164062 349.617188 220.535156 350.199219 217.894531 350.714844 C 215.253906 351.230469 212.597656 351.683594 209.933594 352.070312 C 207.269531 352.460938 204.597656 352.785156 201.917969 353.042969 C 199.238281 353.300781 196.550781 353.496094 193.863281 353.625 C 191.171875 353.757812 188.480469 353.820312 185.785156 353.820312 C 183.09375 353.820312 180.402344 353.757812 177.710938 353.625 C 175.019531 353.496094 172.335938 353.300781 169.65625 353.042969 C 166.976562 352.785156 164.300781 352.460938 161.636719 352.070312 C 158.972656 351.683594 156.320312 351.230469 153.679688 350.714844 C 151.039062 350.199219 148.410156 349.617188 145.796875 348.976562 C 143.183594 348.332031 140.589844 347.625 138.011719 346.859375 C 135.433594 346.089844 132.878906 345.261719 130.34375 344.367188 C 127.804688 343.476562 125.292969 342.523438 122.804688 341.511719 C 120.316406 340.5 117.855469 339.425781 115.421875 338.292969 C 112.988281 337.164062 110.582031 335.972656 108.207031 334.726562 C 105.832031 333.476562 103.488281 332.175781 101.175781 330.8125 C 98.867188 329.453125 96.59375 328.039062 94.351562 326.566406 C 92.113281 325.097656 89.914062 323.574219 87.75 321.996094 C 85.585938 320.421875 83.460938 318.792969 81.378906 317.113281 C 79.296875 315.433594 77.261719 313.707031 75.265625 311.929688 C 73.269531 310.152344 71.316406 308.328125 69.414062 306.457031 C 67.507812 304.582031 65.652344 302.667969 63.84375 300.707031 C 62.035156 298.746094 60.277344 296.742188 58.566406 294.695312 C 56.859375 292.648438 55.203125 290.5625 53.597656 288.4375 C 51.992188 286.3125 50.441406 284.148438 48.945312 281.949219 C 47.449219 279.75 46.007812 277.511719 44.625 275.242188 C 43.242188 272.972656 41.914062 270.671875 40.644531 268.335938 C 39.375 266.003906 38.164062 263.640625 37.011719 261.246094 C 35.859375 258.855469 34.769531 256.433594 33.738281 253.988281 C 32.707031 251.542969 31.738281 249.078125 30.832031 246.585938 C 29.921875 244.09375 29.078125 241.582031 28.296875 239.046875 C 27.515625 236.515625 26.796875 233.964844 26.144531 231.398438 C 25.488281 228.832031 24.898438 226.25 24.371094 223.652344 C 23.847656 221.058594 23.386719 218.449219 22.992188 215.832031 C 22.597656 213.214844 22.265625 210.589844 22.003906 207.953125 C 21.738281 205.320312 21.539062 202.683594 21.410156 200.039062 C 21.277344 197.394531 21.210938 194.75 21.210938 192.101562 C 21.210938 189.457031 21.277344 186.8125 21.410156 184.167969 C 21.539062 181.523438 21.738281 178.886719 22.003906 176.25 C 22.265625 173.617188 22.597656 170.992188 22.992188 168.375 C 23.386719 165.757812 23.847656 163.148438 24.371094 160.554688 C 24.898438 157.957031 25.488281 155.375 26.144531 152.808594 C 26.796875 150.242188 27.515625 147.691406 28.296875 145.160156 C 29.078125 142.625 29.921875 140.113281 30.832031 137.621094 C 31.738281 135.128906 32.707031 132.660156 33.738281 130.214844 C 34.769531 127.769531 35.859375 125.351562 37.011719 122.960938 C 38.164062 120.566406 39.375 118.203125 40.644531 115.871094 C 41.914062 113.535156 43.242188 111.234375 44.625 108.964844 C 46.007812 106.691406 47.449219 104.457031 48.945312 102.257812 C 50.441406 100.054688 51.992188 97.894531 53.597656 95.765625 C 55.203125 93.640625 56.859375 91.554688 58.566406 89.511719 C 60.277344 87.464844 62.035156 85.460938 63.84375 83.5 C 65.652344 81.539062 67.507812 79.621094 69.414062 77.75 C 71.316406 75.878906 73.269531 74.054688 75.265625 72.277344 C 77.261719 70.5 79.296875 68.773438 81.378906 67.09375 C 83.460938 65.414062 85.585938 63.785156 87.75 62.210938 C 89.914062 60.632812 92.113281 59.109375 94.351562 57.640625 C 96.59375 56.167969 98.867188 54.753906 101.175781 53.390625 C 103.488281 52.03125 105.832031 50.726562 108.207031 49.480469 C 110.582031 48.230469 112.988281 47.042969 115.421875 45.910156 C 117.855469 44.78125 120.316406 43.707031 122.804688 42.695312 C 125.292969 41.683594 127.804688 40.730469 130.34375 39.839844 C 132.878906 38.945312 135.433594 38.117188 138.011719 37.347656 C 140.589844 36.578125 143.183594 35.875 145.796875 35.230469 C 148.410156 34.589844 151.039062 34.007812 153.679688 33.492188 C 156.320312 32.976562 158.972656 32.523438 161.636719 32.136719 C 164.300781 31.746094 166.976562 31.421875 169.65625 31.164062 C 172.335938 30.902344 175.019531 30.710938 177.710938 30.578125 C 180.402344 30.449219 183.09375 30.382812 185.785156 30.382812 C 188.480469 30.382812 191.171875 30.449219 193.863281 30.578125 C 196.550781 30.710938 199.238281 30.902344 201.917969 31.164062 C 204.597656 31.421875 207.269531 31.746094 209.933594 32.136719 C 212.597656 32.523438 215.253906 32.976562 217.894531 33.492188 C 220.535156 34.007812 223.164062 34.589844 225.773438 35.230469 C 228.386719 35.875 230.984375 36.578125 233.558594 37.347656 C 236.136719 38.117188 238.695312 38.945312 241.230469 39.839844 C 243.765625 40.730469 246.277344 41.683594 248.765625 42.695312 C 251.253906 43.707031 253.71875 44.78125 256.152344 45.910156 C 258.585938 47.042969 260.992188 48.230469 263.367188 49.480469 C 265.742188 50.726562 268.085938 52.03125 270.394531 53.390625 C 272.707031 54.753906 274.980469 56.167969 277.21875 57.640625 C 279.460938 59.109375 281.660156 60.632812 283.824219 62.210938 C 285.988281 63.785156 288.109375 65.414062 290.191406 67.09375 C 292.273438 68.773438 294.3125 70.5 296.308594 72.277344 C 298.304688 74.054688 300.253906 75.878906 302.160156 77.75 C 304.0625 79.621094 305.921875 81.539062 307.730469 83.5 C 309.539062 85.460938 311.296875 87.464844 313.003906 89.511719 C 314.714844 91.554688 316.371094 93.640625 317.976562 95.765625 C 319.578125 97.894531 321.128906 100.054688 322.625 102.257812 C 324.121094 104.457031 325.5625 106.691406 326.949219 108.964844 C 328.332031 111.234375 329.660156 113.535156 330.929688 115.871094 C 332.199219 118.203125 333.410156 120.566406 334.5625 122.960938 C 335.714844 125.351562 336.804688 127.769531 337.835938 130.214844 C 338.867188 132.660156 339.835938 135.128906 340.742188 137.621094 C 341.648438 140.113281 342.492188 142.625 343.277344 145.160156 C 344.058594 147.691406 344.777344 150.242188 345.429688 152.808594 C 346.085938 155.375 346.675781 157.957031 347.199219 160.554688 C 347.726562 163.148438 348.1875 165.757812 348.582031 168.375 C 348.976562 170.992188 349.304688 173.617188 349.570312 176.25 C 349.835938 178.886719 350.03125 181.523438 350.164062 184.167969 C 350.296875 186.8125 350.363281 189.457031 350.363281 192.101562 Z M 350.363281 192.101562 " fill-opacity="1" fill-rule="nonzero"/><g clip-path="url(#id1)"><path fill="rgb(100%, 100%, 100%)" d="M 312.867188 204.90625 L 347.945312 147.082031 C 347.945312 147.082031 354.039062 137.113281 363.070312 142.882812 C 363.070312 142.882812 370.84375 145.402344 367.273438 158.941406 L 330.511719 218.96875 C 330.511719 218.96875 323.476562 229.253906 314.023438 224.949219 C 314.023438 224.949219 304.359375 218.863281 312.867188 204.90625 Z M 312.867188 204.90625 " fill-opacity="1" fill-rule="nonzero"/></g><path fill="rgb(100%, 100%, 100%)" d="M 34.652344 246.882812 L 11.128906 183.601562 C 11.128906 183.601562 7.136719 172.6875 17.21875 169.121094 C 17.21875 169.121094 24.046875 164.609375 32.449219 175.730469 L 56.710938 241.742188 C 56.710938 241.742188 60.386719 253.707031 51.144531 258.425781 C 51.144531 258.425781 40.324219 262.101562 34.652344 246.882812 Z M 34.652344 246.882812 " fill-opacity="1" fill-rule="nonzero"/><path fill="rgb(100%, 100%, 100%)" d="M 257.308594 229.988281 L 238.300781 165.132812 C 238.300781 165.132812 235.042969 153.902344 245.335938 151.070312 C 245.335938 151.070312 252.476562 147.082031 260.039062 158.730469 L 279.574219 226.316406 C 279.574219 226.316406 282.410156 238.488281 272.851562 242.582031 C 272.957031 242.6875 261.929688 245.625 257.308594 229.988281 Z M 257.308594 229.988281 " fill-opacity="1" fill-rule="nonzero"/><path fill="rgb(100%, 100%, 100%)" d="M 164.675781 240.480469 L 145.667969 175.625 C 145.667969 175.625 142.410156 164.398438 152.703125 161.5625 C 152.703125 161.5625 159.84375 157.578125 167.40625 169.226562 L 186.941406 236.808594 C 186.941406 236.808594 189.777344 248.984375 180.21875 253.074219 C 180.324219 253.074219 169.296875 256.015625 164.675781 240.480469 Z M 164.675781 240.480469 " fill-opacity="1" fill-rule="nonzero"/><path fill="rgb(100%, 100%, 100%)" d="M 289.449219 217.5 L 272.222656 185.703125 C 272.222656 185.703125 269.28125 180.246094 274.21875 177.726562 C 274.21875 177.726562 277.371094 174.890625 282.621094 180.246094 L 300.371094 213.40625 C 300.371094 213.40625 303.207031 219.386719 298.792969 222.535156 C 299.003906 222.535156 293.648438 225.160156 289.449219 217.5 Z M 289.449219 217.5 " fill-opacity="1" fill-rule="nonzero"/><g clip-path="url(#id2)"><path fill="rgb(100%, 100%, 100%)" d="M 83.070312 361.378906 L 34.96875 203.332031 L 6.71875 199.972656 L 64.691406 359.382812 Z M 83.070312 361.378906 " fill-opacity="1" fill-rule="nonzero"/></g><path fill="rgb(100%, 100%, 100%)" d="M 82.757812 361.378906 L 32.972656 199.132812 L 68.472656 204.695312 L 105.652344 361.273438 Z M 82.757812 361.378906 " fill-opacity="1" fill-rule="nonzero"/><path fill="rgb(100%, 100%, 100%)" d="M 105.757812 363.265625 L 66.160156 199.132812 L 104.8125 207.214844 L 130.4375 363.476562 Z M 105.757812 363.265625 " fill-opacity="1" fill-rule="nonzero"/><path fill="rgb(100%, 100%, 100%)" d="M 130.121094 365.15625 L 103.132812 199.132812 L 137.789062 207.53125 L 153.019531 365.261719 Z M 130.121094 365.15625 " fill-opacity="1" fill-rule="nonzero"/><g clip-path="url(#id3)"><path fill="rgb(100%, 100%, 100%)" d="M 152.914062 366.308594 L 136.527344 199.132812 L 166.148438 208.578125 L 172.449219 366.835938 Z M 152.914062 366.308594 " fill-opacity="1" fill-rule="nonzero"/></g><g clip-path="url(#id4)"><path fill="rgb(100%, 100%, 100%)" d="M 169.925781 366.414062 L 162.679688 199.132812 C 162.679688 199.132812 185.785156 212.777344 209.941406 199.132812 L 203.011719 366.835938 Z M 169.925781 366.414062 " fill-opacity="1" fill-rule="nonzero"/></g><g clip-path="url(#id5)"><path fill="rgb(100%, 100%, 100%)" d="M 198.285156 366.308594 L 204.902344 208.472656 L 237.878906 199.132812 L 220.023438 365.996094 Z M 198.285156 366.308594 " fill-opacity="1" fill-rule="nonzero"/></g><path fill="rgb(100%, 100%, 100%)" d="M 219.710938 365.050781 L 234.625 209.839844 L 269.175781 199.132812 L 242.394531 365.050781 Z M 219.710938 365.050781 " fill-opacity="1" fill-rule="nonzero"/><path fill="rgb(100%, 100%, 100%)" d="M 240.296875 363.582031 L 266.867188 209.628906 L 307.089844 199.132812 L 266.339844 363.582031 Z M 240.296875 363.582031 " fill-opacity="1" fill-rule="nonzero"/><path fill="rgb(100%, 100%, 100%)" d="M 267.078125 361.378906 L 302.996094 206.691406 L 338.808594 199.132812 L 289.761719 361.378906 Z M 267.078125 361.378906 " fill-opacity="1" fill-rule="nonzero"/><path fill="rgb(100%, 100%, 100%)" d="M 288.503906 361.378906 L 335.554688 204.277344 L 364.332031 199.132812 L 306.355469 361.378906 Z M 288.503906 361.378906 " fill-opacity="1" fill-rule="nonzero"/><path fill="rgb(100%, 100%, 100%)" d="M 79.394531 152.539062 L 87.378906 117.277344 C 87.378906 117.277344 88.742188 111.191406 94.203125 112.554688 C 94.203125 112.554688 98.40625 112.554688 98.929688 120.007812 L 90.527344 156.632812 C 90.527344 156.632812 88.742188 163.035156 83.386719 162.402344 C 83.28125 162.613281 77.503906 161.039062 79.394531 152.539062 Z M 79.394531 152.539062 " fill-opacity="1" fill-rule="nonzero"/><path fill="rgb(100%, 100%, 100%)" d="M 45.683594 176.675781 L 61.015625 112.136719 C 61.015625 112.136719 63.746094 101.011719 74.039062 103.636719 C 74.039062 103.636719 82.230469 103.636719 83.070312 117.277344 L 66.792969 184.335938 C 66.792969 184.335938 63.324219 196.089844 53.035156 194.9375 C 53.035156 195.042969 42.003906 192.207031 45.683594 176.675781 Z M 45.683594 176.675781 " fill-opacity="1" fill-rule="nonzero"/><path fill="rgb(100%, 100%, 100%)" d="M 23.417969 133.335938 L 50.617188 71.417969 C 50.617188 71.417969 55.34375 60.816406 65.113281 65.226562 C 65.113281 65.226562 73.09375 66.695312 71.414062 80.652344 L 42.742188 144.878906 C 42.742188 144.878906 37.070312 156.003906 27.195312 152.957031 C 27.195312 153.167969 16.90625 148.238281 23.417969 133.335938 Z M 23.417969 133.335938 " fill-opacity="1" fill-rule="nonzero"/><path fill="rgb(100%, 100%, 100%)" d="M 119.621094 151.699219 L 151.441406 92.089844 C 151.441406 92.089844 157.007812 81.808594 166.355469 87.054688 C 166.355469 87.054688 174.234375 89.152344 171.503906 102.902344 L 138.105469 164.816406 C 138.105469 164.816406 131.59375 175.523438 121.929688 171.742188 C 121.824219 171.640625 111.953125 166.078125 119.621094 151.699219 Z M 119.621094 151.699219 " fill-opacity="1" fill-rule="nonzero"/><path fill="rgb(100%, 100%, 100%)" d="M 191.039062 182.238281 L 226.117188 124.414062 C 226.117188 124.414062 232.207031 114.445312 241.242188 120.214844 C 241.242188 120.214844 249.011719 122.734375 245.441406 136.273438 L 208.683594 196.300781 C 208.683594 196.300781 201.644531 206.585938 192.191406 202.28125 C 192.191406 202.28125 182.636719 196.089844 191.039062 182.238281 Z M 191.039062 182.238281 " fill-opacity="1" fill-rule="nonzero"/><path fill="rgb(100%, 100%, 100%)" d="M 180.21875 146.765625 L 176.4375 79.289062 C 176.4375 79.289062 175.808594 67.640625 186.523438 67.21875 C 186.523438 67.21875 194.398438 64.910156 199.125 78.132812 L 202.695312 148.445312 C 202.695312 148.445312 202.695312 160.933594 192.507812 162.71875 C 192.507812 162.613281 181.164062 162.929688 180.21875 146.765625 Z M 180.21875 146.765625 " fill-opacity="1" fill-rule="nonzero"/><path fill="rgb(100%, 100%, 100%)" d="M 105.335938 117.90625 L 80.761719 54.941406 C 80.761719 54.941406 76.558594 44.027344 86.640625 40.355469 C 86.640625 40.355469 93.363281 35.738281 101.976562 46.753906 L 127.285156 112.449219 C 127.285156 112.449219 131.171875 124.308594 122.035156 129.136719 C 122.035156 129.136719 111.324219 133.019531 105.335938 117.90625 Z M 105.335938 117.90625 " fill-opacity="1" fill-rule="nonzero"/><path fill="rgb(100%, 100%, 100%)" d="M 334.503906 116.648438 L 289.65625 65.960938 C 289.65625 65.960938 281.992188 57.144531 290.078125 50.21875 C 290.078125 50.21875 294.804688 43.605469 306.671875 50.953125 L 353.09375 103.84375 C 353.09375 103.84375 360.863281 113.605469 353.933594 121.371094 C 354.039062 121.476562 345.320312 128.820312 334.503906 116.648438 Z M 334.503906 116.648438 " fill-opacity="1" fill-rule="nonzero"/><path fill="rgb(100%, 100%, 100%)" d="M 287.03125 177.515625 L 255.105469 117.90625 C 255.105469 117.90625 249.640625 107.625 259.199219 102.796875 C 259.199219 102.796875 265.292969 97.445312 275.164062 107.308594 L 308.140625 169.433594 C 308.140625 169.433594 313.394531 180.769531 304.886719 186.644531 C 304.886719 186.75 294.699219 191.894531 287.03125 177.515625 Z M 287.03125 177.515625 " fill-opacity="1" fill-rule="nonzero"/><path fill="rgb(100%, 100%, 100%)" d="M 86.117188 173.527344 L 103.761719 140.46875 C 103.761719 140.46875 106.808594 134.804688 112.058594 137.636719 C 112.058594 137.636719 116.46875 138.792969 114.894531 146.453125 L 96.304688 180.875 C 96.304688 180.875 92.734375 186.75 87.378906 184.757812 C 87.378906 184.546875 81.914062 181.503906 86.117188 173.527344 Z M 86.117188 173.527344 " fill-opacity="1" fill-rule="nonzero"/><path fill="rgb(100%, 100%, 100%)" d="M 209.523438 76.140625 L 228.742188 43.921875 C 228.742188 43.921875 232.101562 38.359375 237.144531 41.507812 C 237.144531 41.507812 241.449219 42.871094 239.558594 50.429688 L 219.394531 83.90625 C 219.394531 83.90625 215.507812 89.679688 210.257812 87.265625 C 210.257812 87.265625 204.902344 83.90625 209.523438 76.140625 Z M 209.523438 76.140625 " fill-opacity="1" fill-rule="nonzero"/><path fill="rgb(100%, 100%, 100%)" d="M 80.339844 93.980469 L 68.15625 59.980469 C 68.15625 59.980469 66.058594 54.101562 71.414062 52.421875 C 71.414062 52.421875 74.984375 50.113281 79.394531 56.199219 L 91.894531 91.671875 C 91.894531 91.671875 93.785156 98.074219 88.953125 100.382812 C 88.953125 100.382812 83.28125 102.167969 80.339844 93.980469 Z M 80.339844 93.980469 " fill-opacity="1" fill-rule="nonzero"/><path fill="rgb(100%, 100%, 100%)" d="M 172.34375 171.324219 L 160.160156 137.324219 C 160.160156 137.324219 158.058594 131.445312 163.414062 129.765625 C 163.414062 129.765625 166.988281 127.457031 171.398438 133.542969 L 183.894531 169.015625 C 183.894531 169.015625 185.785156 175.417969 180.957031 177.726562 C 180.957031 177.832031 175.285156 179.511719 172.34375 171.324219 Z M 172.34375 171.324219 " fill-opacity="1" fill-rule="nonzero"/><path fill="rgb(100%, 100%, 100%)" d="M 302.261719 146.136719 L 283.777344 115.074219 C 283.777344 115.074219 280.625 109.722656 285.457031 106.992188 C 285.457031 106.992188 288.503906 104.054688 293.964844 109.199219 L 313.078125 141.625 C 313.078125 141.625 316.230469 147.5 311.921875 150.753906 C 311.921875 150.859375 306.777344 153.695312 302.261719 146.136719 Z M 302.261719 146.136719 " fill-opacity="1" fill-rule="nonzero"/><path fill="rgb(100%, 100%, 100%)" d="M 116.363281 60.398438 L 121.824219 24.613281 C 121.824219 24.613281 122.769531 18.421875 128.230469 19.46875 C 128.230469 19.46875 132.433594 19.15625 133.484375 26.605469 L 127.601562 63.757812 C 127.601562 63.757812 126.238281 70.261719 120.878906 70.054688 C 120.878906 70.160156 115.105469 69.003906 116.363281 60.398438 Z M 116.363281 60.398438 " fill-opacity="1" fill-rule="nonzero"/><path fill="rgb(100%, 100%, 100%)" d="M 207.84375 123.785156 L 218.554688 89.257812 C 218.554688 89.257812 220.445312 83.277344 225.695312 85.164062 C 225.695312 85.164062 229.898438 85.480469 229.792969 93.035156 L 218.449219 128.925781 C 218.449219 128.925781 216.140625 135.222656 210.886719 134.175781 C 210.78125 134.070312 205.214844 132.074219 207.84375 123.785156 Z M 207.84375 123.785156 " fill-opacity="1" fill-rule="nonzero"/><path fill="rgb(100%, 100%, 100%)" d="M 270.753906 70.472656 L 270.753906 34.265625 C 270.753906 34.265625 270.753906 28.074219 276.320312 28.179688 C 276.320312 28.179688 280.414062 27.234375 282.515625 34.476562 L 282.304688 72.152344 C 282.304688 72.152344 281.992188 78.867188 276.632812 79.394531 C 276.738281 79.5 270.753906 79.183594 270.753906 70.472656 Z M 270.753906 70.472656 " fill-opacity="1" fill-rule="nonzero"/><path fill="rgb(100%, 100%, 100%)" d="M 313.8125 173.214844 L 324.734375 138.792969 C 324.734375 138.792969 326.625 132.808594 331.878906 134.699219 C 331.878906 134.699219 336.078125 135.011719 335.867188 142.570312 L 324.316406 178.355469 C 324.316406 178.355469 322.003906 184.652344 316.648438 183.496094 C 316.753906 183.601562 311.1875 181.503906 313.8125 173.214844 Z M 313.8125 173.214844 " fill-opacity="1" fill-rule="nonzero"/><path fill="rgb(100%, 100%, 100%)" d="M 231.578125 92.089844 L 247.855469 26.5 C 247.855469 26.5 250.691406 15.167969 261.089844 18 C 261.089844 18 269.28125 18.105469 269.914062 32.0625 L 252.6875 100.277344 C 252.6875 100.277344 249.011719 112.242188 238.71875 110.875 C 238.613281 110.875 227.585938 107.832031 231.578125 92.089844 Z M 231.578125 92.089844 " fill-opacity="1" fill-rule="nonzero"/><g clip-path="url(#id6)"><path fill="rgb(100%, 100%, 100%)" d="M 126.132812 82.332031 L 142.410156 16.742188 C 142.410156 16.742188 145.246094 5.40625 155.644531 8.242188 C 155.644531 8.242188 163.835938 8.347656 164.464844 22.304688 L 147.242188 90.515625 C 147.242188 90.515625 143.566406 102.480469 133.273438 101.117188 C 133.167969 101.222656 122.140625 98.179688 126.132812 82.332031 Z M 126.132812 82.332031 " fill-opacity="1" fill-rule="nonzero"/></g><path fill="rgb(100%, 100%, 100%)" d="M 169.925781 50.21875 L 224.855469 10.863281 C 224.855469 10.863281 234.414062 4.148438 240.398438 12.964844 C 240.398438 12.964844 246.492188 18.316406 237.984375 29.441406 L 180.535156 70.160156 C 180.535156 70.160156 170.03125 76.875 162.996094 69.214844 C 163.207031 69.109375 156.695312 59.664062 169.925781 50.21875 Z M 169.925781 50.21875 " fill-opacity="1" fill-rule="nonzero"/><path fill="rgb(100%, 100%, 100%)" d="M 167.300781 35.527344 L 196.394531 14.644531 C 196.394531 14.644531 201.433594 11.074219 204.691406 15.691406 C 204.691406 15.691406 207.945312 18.527344 203.429688 24.402344 L 173.078125 45.917969 C 173.078125 45.917969 167.511719 49.484375 163.835938 45.390625 C 163.625 45.601562 160.265625 40.5625 167.300781 35.527344 Z M 167.300781 35.527344 " fill-opacity="1" fill-rule="nonzero"/><path fill="rgb(100%, 100%, 100%)" d="M 105.125 175.3125 L 142.621094 177.410156 C 142.621094 177.410156 149.132812 177.832031 148.605469 183.707031 C 148.605469 183.707031 149.34375 188.21875 141.78125 190.003906 L 102.816406 187.589844 C 102.816406 187.589844 95.882812 186.855469 95.570312 181.082031 C 95.570312 181.082031 96.09375 174.789062 105.125 175.3125 Z M 105.125 175.3125 " fill-opacity="1" fill-rule="nonzero"/><path fill="rgb(100%, 100%, 100%)" d="M 297.324219 98.597656 L 261.71875 91.777344 C 261.71875 91.777344 255.628906 90.515625 256.890625 85.164062 C 256.890625 85.164062 256.785156 80.96875 264.242188 80.234375 L 301.210938 87.472656 C 301.210938 87.472656 307.722656 89.046875 307.195312 94.398438 C 307.195312 94.503906 305.832031 100.277344 297.324219 98.597656 Z M 297.324219 98.597656 " fill-opacity="1" fill-rule="nonzero"/><path fill="rgb(100%, 100%, 100%)" d="M 339.019531 133.964844 L 308.457031 114.550781 C 308.457031 114.550781 303.207031 111.191406 306.355469 106.574219 C 306.355469 106.574219 307.828125 102.585938 314.96875 104.683594 L 346.6875 125.042969 C 346.6875 125.042969 352.148438 128.925781 349.730469 133.753906 C 349.730469 133.753906 346.371094 138.582031 339.019531 133.964844 Z M 339.019531 133.964844 " fill-opacity="1" fill-rule="nonzero"/><path fill="rgb(100%, 100%, 100%)" d="M 67.210938 230.09375 C 67.210938 230.5625 67.167969 231.023438 67.074219 231.484375 C 66.984375 231.945312 66.847656 232.390625 66.667969 232.824219 C 66.488281 233.257812 66.269531 233.667969 66.007812 234.058594 C 65.746094 234.445312 65.453125 234.808594 65.121094 235.140625 C 64.789062 235.46875 64.429688 235.765625 64.039062 236.027344 C 63.648438 236.285156 63.238281 236.507812 62.804688 236.6875 C 62.371094 236.863281 61.921875 237 61.464844 237.089844 C 61.003906 237.183594 60.539062 237.230469 60.070312 237.230469 C 59.601562 237.230469 59.136719 237.183594 58.675781 237.089844 C 58.21875 237 57.769531 236.863281 57.335938 236.6875 C 56.902344 236.507812 56.492188 236.285156 56.101562 236.027344 C 55.710938 235.765625 55.351562 235.46875 55.019531 235.140625 C 54.6875 234.808594 54.394531 234.445312 54.132812 234.058594 C 53.871094 233.667969 53.652344 233.257812 53.472656 232.824219 C 53.292969 232.390625 53.15625 231.945312 53.066406 231.484375 C 52.972656 231.023438 52.929688 230.5625 52.929688 230.09375 C 52.929688 229.625 52.972656 229.160156 53.066406 228.699219 C 53.15625 228.242188 53.292969 227.792969 53.472656 227.363281 C 53.652344 226.929688 53.871094 226.519531 54.132812 226.128906 C 54.394531 225.738281 54.6875 225.378906 55.019531 225.046875 C 55.351562 224.714844 55.710938 224.417969 56.101562 224.160156 C 56.492188 223.898438 56.902344 223.679688 57.335938 223.5 C 57.769531 223.320312 58.21875 223.183594 58.675781 223.09375 C 59.136719 223.003906 59.601562 222.957031 60.070312 222.957031 C 60.539062 222.957031 61.003906 223.003906 61.464844 223.09375 C 61.921875 223.183594 62.371094 223.320312 62.804688 223.5 C 63.238281 223.679688 63.648438 223.898438 64.039062 224.160156 C 64.429688 224.417969 64.789062 224.714844 65.121094 225.046875 C 65.453125 225.378906 65.746094 225.738281 66.007812 226.128906 C 66.269531 226.519531 66.488281 226.929688 66.667969 227.363281 C 66.847656 227.792969 66.984375 228.242188 67.074219 228.699219 C 67.167969 229.160156 67.210938 229.625 67.210938 230.09375 Z M 67.210938 230.09375 " fill-opacity="1" fill-rule="nonzero"/><path fill="rgb(100%, 100%, 100%)" d="M 81.914062 287.390625 C 81.914062 291.273438 78.765625 294.527344 74.773438 294.527344 C 70.886719 294.527344 67.632812 291.378906 67.632812 287.390625 C 67.632812 283.507812 70.78125 280.257812 74.773438 280.257812 C 78.765625 280.257812 81.914062 283.402344 81.914062 287.390625 Z M 81.914062 287.390625 " fill-opacity="1" fill-rule="nonzero"/><path fill="rgb(100%, 100%, 100%)" d="M 132.539062 226 C 132.539062 226.46875 132.492188 226.933594 132.402344 227.390625 C 132.308594 227.851562 132.175781 228.296875 131.996094 228.730469 C 131.816406 229.164062 131.59375 229.574219 131.335938 229.964844 C 131.074219 230.355469 130.777344 230.714844 130.445312 231.046875 C 130.113281 231.378906 129.753906 231.671875 129.363281 231.933594 C 128.972656 232.195312 128.5625 232.414062 128.128906 232.59375 C 127.695312 232.773438 127.25 232.90625 126.789062 233 C 126.328125 233.089844 125.867188 233.136719 125.398438 233.136719 C 124.925781 233.136719 124.464844 233.089844 124.003906 233 C 123.542969 232.90625 123.097656 232.773438 122.664062 232.59375 C 122.230469 232.414062 121.820312 232.195312 121.429688 231.933594 C 121.039062 231.671875 120.679688 231.378906 120.347656 231.046875 C 120.015625 230.714844 119.71875 230.355469 119.457031 229.964844 C 119.199219 229.574219 118.976562 229.164062 118.796875 228.730469 C 118.617188 228.296875 118.484375 227.851562 118.390625 227.390625 C 118.300781 226.933594 118.253906 226.46875 118.253906 226 C 118.253906 225.53125 118.300781 225.066406 118.390625 224.609375 C 118.484375 224.148438 118.617188 223.703125 118.796875 223.269531 C 118.976562 222.835938 119.199219 222.425781 119.457031 222.035156 C 119.71875 221.644531 120.015625 221.285156 120.347656 220.953125 C 120.679688 220.621094 121.039062 220.328125 121.429688 220.066406 C 121.820312 219.804688 122.230469 219.585938 122.664062 219.40625 C 123.097656 219.226562 123.542969 219.09375 124.003906 219 C 124.464844 218.910156 124.925781 218.863281 125.398438 218.863281 C 125.867188 218.863281 126.328125 218.910156 126.789062 219 C 127.25 219.09375 127.695312 219.226562 128.128906 219.40625 C 128.5625 219.585938 128.972656 219.804688 129.363281 220.066406 C 129.753906 220.328125 130.113281 220.621094 130.445312 220.953125 C 130.777344 221.285156 131.074219 221.644531 131.335938 222.035156 C 131.59375 222.425781 131.816406 222.835938 131.996094 223.269531 C 132.175781 223.703125 132.308594 224.148438 132.402344 224.609375 C 132.492188 225.066406 132.539062 225.53125 132.539062 226 Z M 132.539062 226 " fill-opacity="1" fill-rule="nonzero"/><path fill="rgb(100%, 100%, 100%)" d="M 137.578125 286.65625 C 137.578125 287.125 137.535156 287.589844 137.441406 288.050781 C 137.351562 288.507812 137.214844 288.957031 137.035156 289.386719 C 136.855469 289.820312 136.636719 290.234375 136.375 290.621094 C 136.117188 291.011719 135.820312 291.371094 135.488281 291.703125 C 135.15625 292.035156 134.796875 292.332031 134.40625 292.589844 C 134.015625 292.851562 133.605469 293.070312 133.171875 293.25 C 132.738281 293.429688 132.289062 293.566406 131.832031 293.65625 C 131.371094 293.746094 130.90625 293.792969 130.4375 293.792969 C 129.96875 293.792969 129.503906 293.746094 129.042969 293.65625 C 128.585938 293.566406 128.136719 293.429688 127.703125 293.25 C 127.273438 293.070312 126.859375 292.851562 126.46875 292.589844 C 126.082031 292.332031 125.71875 292.035156 125.386719 291.703125 C 125.054688 291.371094 124.761719 291.011719 124.5 290.621094 C 124.238281 290.234375 124.019531 289.820312 123.839844 289.386719 C 123.660156 288.957031 123.523438 288.507812 123.433594 288.050781 C 123.339844 287.589844 123.296875 287.125 123.296875 286.65625 C 123.296875 286.1875 123.339844 285.726562 123.433594 285.265625 C 123.523438 284.804688 123.660156 284.359375 123.839844 283.925781 C 124.019531 283.492188 124.238281 283.082031 124.5 282.691406 C 124.761719 282.304688 125.054688 281.941406 125.386719 281.613281 C 125.71875 281.28125 126.082031 280.984375 126.46875 280.722656 C 126.859375 280.464844 127.273438 280.242188 127.703125 280.066406 C 128.136719 279.886719 128.585938 279.75 129.042969 279.660156 C 129.503906 279.566406 129.96875 279.519531 130.4375 279.519531 C 130.90625 279.519531 131.371094 279.566406 131.832031 279.660156 C 132.289062 279.75 132.738281 279.886719 133.171875 280.066406 C 133.605469 280.242188 134.015625 280.464844 134.40625 280.722656 C 134.796875 280.984375 135.15625 281.28125 135.488281 281.613281 C 135.820312 281.941406 136.117188 282.304688 136.375 282.691406 C 136.636719 283.082031 136.855469 283.492188 137.035156 283.925781 C 137.214844 284.359375 137.351562 284.804688 137.441406 285.265625 C 137.535156 285.726562 137.578125 286.1875 137.578125 286.65625 Z M 137.578125 286.65625 " fill-opacity="1" fill-rule="nonzero"/><path fill="rgb(100%, 100%, 100%)" d="M 193.664062 226 C 193.664062 226.46875 193.617188 226.933594 193.527344 227.390625 C 193.433594 227.851562 193.300781 228.296875 193.121094 228.730469 C 192.941406 229.164062 192.71875 229.574219 192.460938 229.964844 C 192.199219 230.355469 191.902344 230.714844 191.570312 231.046875 C 191.238281 231.378906 190.878906 231.671875 190.488281 231.933594 C 190.097656 232.195312 189.6875 232.414062 189.253906 232.59375 C 188.820312 232.773438 188.375 232.90625 187.914062 233 C 187.457031 233.089844 186.992188 233.136719 186.523438 233.136719 C 186.054688 233.136719 185.589844 233.089844 185.128906 233 C 184.667969 232.90625 184.222656 232.773438 183.789062 232.59375 C 183.355469 232.414062 182.945312 232.195312 182.554688 231.933594 C 182.164062 231.671875 181.804688 231.378906 181.472656 231.046875 C 181.140625 230.714844 180.84375 230.355469 180.582031 229.964844 C 180.324219 229.574219 180.101562 229.164062 179.921875 228.730469 C 179.742188 228.296875 179.609375 227.851562 179.515625 227.390625 C 179.425781 226.933594 179.378906 226.46875 179.378906 226 C 179.378906 225.53125 179.425781 225.066406 179.515625 224.609375 C 179.609375 224.148438 179.742188 223.703125 179.921875 223.269531 C 180.101562 222.835938 180.324219 222.425781 180.582031 222.035156 C 180.84375 221.644531 181.140625 221.285156 181.472656 220.953125 C 181.804688 220.621094 182.164062 220.328125 182.554688 220.066406 C 182.945312 219.804688 183.355469 219.585938 183.789062 219.40625 C 184.222656 219.226562 184.667969 219.09375 185.128906 219 C 185.589844 218.910156 186.054688 218.863281 186.523438 218.863281 C 186.992188 218.863281 187.457031 218.910156 187.914062 219 C 188.375 219.09375 188.820312 219.226562 189.253906 219.40625 C 189.6875 219.585938 190.097656 219.804688 190.488281 220.066406 C 190.878906 220.328125 191.238281 220.621094 191.570312 220.953125 C 191.902344 221.285156 192.199219 221.644531 192.460938 222.035156 C 192.71875 222.425781 192.941406 222.835938 193.121094 223.269531 C 193.300781 223.703125 193.433594 224.148438 193.527344 224.609375 C 193.617188 225.066406 193.664062 225.53125 193.664062 226 Z M 193.664062 226 " fill-opacity="1" fill-rule="nonzero"/><path fill="rgb(100%, 100%, 100%)" d="M 196.710938 290.015625 C 196.710938 290.484375 196.664062 290.949219 196.570312 291.40625 C 196.480469 291.867188 196.34375 292.3125 196.164062 292.746094 C 195.984375 293.179688 195.765625 293.589844 195.503906 293.980469 C 195.246094 294.371094 194.949219 294.730469 194.617188 295.0625 C 194.285156 295.394531 193.925781 295.6875 193.535156 295.949219 C 193.144531 296.210938 192.734375 296.429688 192.300781 296.609375 C 191.867188 296.789062 191.421875 296.921875 190.960938 297.015625 C 190.5 297.105469 190.035156 297.152344 189.566406 297.152344 C 189.097656 297.152344 188.632812 297.105469 188.175781 297.015625 C 187.714844 296.921875 187.269531 296.789062 186.835938 296.609375 C 186.402344 296.429688 185.988281 296.210938 185.601562 295.949219 C 185.210938 295.6875 184.847656 295.394531 184.515625 295.0625 C 184.1875 294.730469 183.890625 294.371094 183.628906 293.980469 C 183.367188 293.589844 183.148438 293.179688 182.96875 292.746094 C 182.789062 292.3125 182.65625 291.867188 182.5625 291.40625 C 182.472656 290.949219 182.425781 290.484375 182.425781 290.015625 C 182.425781 289.546875 182.472656 289.082031 182.5625 288.625 C 182.65625 288.164062 182.789062 287.71875 182.96875 287.285156 C 183.148438 286.851562 183.367188 286.441406 183.628906 286.050781 C 183.890625 285.660156 184.1875 285.300781 184.515625 284.96875 C 184.847656 284.636719 185.210938 284.34375 185.601562 284.082031 C 185.988281 283.820312 186.402344 283.601562 186.835938 283.421875 C 187.269531 283.242188 187.714844 283.109375 188.175781 283.015625 C 188.632812 282.925781 189.097656 282.878906 189.566406 282.878906 C 190.035156 282.878906 190.5 282.925781 190.960938 283.015625 C 191.421875 283.109375 191.867188 283.242188 192.300781 283.421875 C 192.734375 283.601562 193.144531 283.820312 193.535156 284.082031 C 193.925781 284.34375 194.285156 284.636719 194.617188 284.96875 C 194.949219 285.300781 195.246094 285.660156 195.503906 286.050781 C 195.765625 286.441406 195.984375 286.851562 196.164062 287.285156 C 196.34375 287.71875 196.480469 288.164062 196.570312 288.625 C 196.664062 289.082031 196.710938 289.546875 196.710938 290.015625 Z M 196.710938 290.015625 " fill-opacity="1" fill-rule="nonzero"/><path fill="rgb(100%, 100%, 100%)" d="M 257.332031 224.941406 C 257.402344 225.402344 257.425781 225.871094 257.402344 226.335938 C 257.378906 226.804688 257.3125 227.265625 257.199219 227.722656 C 257.085938 228.175781 256.929688 228.617188 256.730469 229.039062 C 256.53125 229.464844 256.289062 229.863281 256.011719 230.238281 C 255.730469 230.617188 255.417969 230.960938 255.070312 231.277344 C 254.726562 231.59375 254.351562 231.871094 253.949219 232.113281 C 253.546875 232.355469 253.125 232.554688 252.683594 232.710938 C 252.242188 232.871094 251.789062 232.984375 251.324219 233.054688 C 250.863281 233.121094 250.394531 233.144531 249.925781 233.125 C 249.460938 233.101562 248.996094 233.035156 248.542969 232.921875 C 248.085938 232.808594 247.648438 232.648438 247.222656 232.449219 C 246.800781 232.25 246.398438 232.011719 246.023438 231.734375 C 245.644531 231.453125 245.300781 231.140625 244.984375 230.792969 C 244.667969 230.449219 244.390625 230.074219 244.148438 229.671875 C 243.90625 229.269531 243.707031 228.847656 243.546875 228.40625 C 243.390625 227.96875 243.277344 227.515625 243.207031 227.050781 C 243.136719 226.585938 243.113281 226.121094 243.136719 225.652344 C 243.160156 225.1875 243.226562 224.726562 243.339844 224.269531 C 243.453125 223.816406 243.609375 223.375 243.808594 222.953125 C 244.011719 222.527344 244.25 222.128906 244.527344 221.75 C 244.808594 221.375 245.121094 221.027344 245.46875 220.714844 C 245.8125 220.398438 246.1875 220.121094 246.589844 219.878906 C 246.992188 219.636719 247.414062 219.4375 247.855469 219.28125 C 248.296875 219.121094 248.75 219.007812 249.214844 218.9375 C 249.675781 218.867188 250.144531 218.84375 250.613281 218.867188 C 251.078125 218.890625 251.542969 218.957031 251.996094 219.070312 C 252.453125 219.183594 252.890625 219.339844 253.316406 219.542969 C 253.738281 219.742188 254.140625 219.980469 254.515625 220.257812 C 254.894531 220.539062 255.242188 220.851562 255.554688 221.195312 C 255.871094 221.542969 256.148438 221.917969 256.390625 222.320312 C 256.632812 222.722656 256.832031 223.144531 256.992188 223.582031 C 257.148438 224.023438 257.261719 224.476562 257.332031 224.941406 Z M 257.332031 224.941406 " fill-opacity="1" fill-rule="nonzero"/><path fill="rgb(100%, 100%, 100%)" d="M 249.746094 289.492188 C 249.746094 289.960938 249.703125 290.421875 249.609375 290.882812 C 249.519531 291.34375 249.382812 291.789062 249.203125 292.222656 C 249.023438 292.65625 248.804688 293.066406 248.542969 293.457031 C 248.285156 293.84375 247.988281 294.207031 247.65625 294.535156 C 247.324219 294.867188 246.964844 295.164062 246.574219 295.425781 C 246.183594 295.683594 245.773438 295.90625 245.339844 296.082031 C 244.90625 296.261719 244.457031 296.398438 244 296.488281 C 243.539062 296.582031 243.074219 296.628906 242.605469 296.628906 C 242.136719 296.628906 241.671875 296.582031 241.210938 296.488281 C 240.753906 296.398438 240.304688 296.261719 239.871094 296.082031 C 239.4375 295.90625 239.027344 295.683594 238.636719 295.425781 C 238.246094 295.164062 237.886719 294.867188 237.554688 294.535156 C 237.222656 294.207031 236.929688 293.84375 236.667969 293.457031 C 236.40625 293.066406 236.1875 292.65625 236.007812 292.222656 C 235.828125 291.789062 235.691406 291.34375 235.601562 290.882812 C 235.507812 290.421875 235.464844 289.960938 235.464844 289.492188 C 235.464844 289.023438 235.507812 288.558594 235.601562 288.097656 C 235.691406 287.640625 235.828125 287.191406 236.007812 286.761719 C 236.1875 286.328125 236.40625 285.914062 236.667969 285.527344 C 236.929688 285.136719 237.222656 284.777344 237.554688 284.445312 C 237.886719 284.113281 238.246094 283.816406 238.636719 283.558594 C 239.027344 283.296875 239.4375 283.078125 239.871094 282.898438 C 240.304688 282.71875 240.753906 282.582031 241.210938 282.492188 C 241.671875 282.402344 242.136719 282.355469 242.605469 282.355469 C 243.074219 282.355469 243.539062 282.402344 244 282.492188 C 244.457031 282.582031 244.90625 282.71875 245.339844 282.898438 C 245.773438 283.078125 246.183594 283.296875 246.574219 283.558594 C 246.964844 283.816406 247.324219 284.113281 247.65625 284.445312 C 247.988281 284.777344 248.285156 285.136719 248.542969 285.527344 C 248.804688 285.914062 249.023438 286.328125 249.203125 286.761719 C 249.382812 287.191406 249.519531 287.640625 249.609375 288.097656 C 249.703125 288.558594 249.746094 289.023438 249.746094 289.492188 Z M 249.746094 289.492188 " fill-opacity="1" fill-rule="nonzero"/><path fill="rgb(100%, 100%, 100%)" d="M 321.375 228.097656 C 321.375 228.566406 321.328125 229.03125 321.238281 229.492188 C 321.148438 229.949219 321.011719 230.398438 320.832031 230.828125 C 320.652344 231.261719 320.433594 231.671875 320.171875 232.0625 C 319.910156 232.453125 319.613281 232.8125 319.285156 233.144531 C 318.953125 233.476562 318.589844 233.773438 318.203125 234.03125 C 317.8125 234.292969 317.398438 234.511719 316.964844 234.691406 C 316.535156 234.871094 316.085938 235.007812 315.625 235.097656 C 315.167969 235.1875 314.703125 235.234375 314.234375 235.234375 C 313.765625 235.234375 313.300781 235.1875 312.839844 235.097656 C 312.378906 235.007812 311.933594 234.871094 311.5 234.691406 C 311.066406 234.511719 310.65625 234.292969 310.265625 234.03125 C 309.875 233.773438 309.515625 233.476562 309.183594 233.144531 C 308.851562 232.8125 308.554688 232.453125 308.296875 232.0625 C 308.035156 231.671875 307.816406 231.261719 307.636719 230.828125 C 307.457031 230.398438 307.320312 229.949219 307.230469 229.492188 C 307.136719 229.03125 307.089844 228.566406 307.089844 228.097656 C 307.089844 227.628906 307.136719 227.167969 307.230469 226.707031 C 307.320312 226.246094 307.457031 225.800781 307.636719 225.367188 C 307.816406 224.933594 308.035156 224.523438 308.296875 224.132812 C 308.554688 223.746094 308.851562 223.382812 309.183594 223.050781 C 309.515625 222.722656 309.875 222.425781 310.265625 222.164062 C 310.65625 221.90625 311.066406 221.683594 311.5 221.503906 C 311.933594 221.328125 312.378906 221.191406 312.839844 221.101562 C 313.300781 221.007812 313.765625 220.960938 314.234375 220.960938 C 314.703125 220.960938 315.167969 221.007812 315.625 221.101562 C 316.085938 221.191406 316.535156 221.328125 316.964844 221.503906 C 317.398438 221.683594 317.8125 221.90625 318.203125 222.164062 C 318.589844 222.425781 318.953125 222.722656 319.285156 223.050781 C 319.613281 223.382812 319.910156 223.746094 320.171875 224.132812 C 320.433594 224.523438 320.652344 224.933594 320.832031 225.367188 C 321.011719 225.800781 321.148438 226.246094 321.238281 226.707031 C 321.328125 227.167969 321.375 227.628906 321.375 228.097656 Z M 321.375 228.097656 " fill-opacity="1" fill-rule="nonzero"/><path fill="rgb(100%, 100%, 100%)" d="M 305.621094 293.792969 C 305.621094 294.261719 305.574219 294.726562 305.484375 295.1875 C 305.394531 295.644531 305.257812 296.089844 305.078125 296.523438 C 304.898438 296.957031 304.679688 297.367188 304.417969 297.757812 C 304.15625 298.148438 303.859375 298.507812 303.53125 298.839844 C 303.199219 299.171875 302.835938 299.46875 302.449219 299.726562 C 302.058594 299.988281 301.644531 300.207031 301.210938 300.386719 C 300.78125 300.566406 300.332031 300.703125 299.871094 300.792969 C 299.414062 300.882812 298.949219 300.929688 298.480469 300.929688 C 298.011719 300.929688 297.546875 300.882812 297.085938 300.792969 C 296.625 300.703125 296.179688 300.566406 295.746094 300.386719 C 295.3125 300.207031 294.902344 299.988281 294.511719 299.726562 C 294.121094 299.46875 293.761719 299.171875 293.429688 298.839844 C 293.097656 298.507812 292.800781 298.148438 292.542969 297.757812 C 292.28125 297.367188 292.0625 296.957031 291.882812 296.523438 C 291.703125 296.089844 291.566406 295.644531 291.476562 295.1875 C 291.382812 294.726562 291.335938 294.261719 291.335938 293.792969 C 291.335938 293.324219 291.382812 292.859375 291.476562 292.402344 C 291.566406 291.941406 291.703125 291.496094 291.882812 291.0625 C 292.0625 290.628906 292.28125 290.21875 292.542969 289.828125 C 292.800781 289.4375 293.097656 289.078125 293.429688 288.746094 C 293.761719 288.417969 294.121094 288.121094 294.511719 287.859375 C 294.902344 287.601562 295.3125 287.378906 295.746094 287.199219 C 296.179688 287.019531 296.625 286.886719 297.085938 286.792969 C 297.546875 286.703125 298.011719 286.65625 298.480469 286.65625 C 298.949219 286.65625 299.414062 286.703125 299.871094 286.792969 C 300.332031 286.886719 300.78125 287.019531 301.210938 287.199219 C 301.644531 287.378906 302.058594 287.601562 302.449219 287.859375 C 302.835938 288.121094 303.199219 288.417969 303.53125 288.746094 C 303.859375 289.078125 304.15625 289.4375 304.417969 289.828125 C 304.679688 290.21875 304.898438 290.628906 305.078125 291.0625 C 305.257812 291.496094 305.394531 291.941406 305.484375 292.402344 C 305.574219 292.859375 305.621094 293.324219 305.621094 293.792969 Z M 305.621094 293.792969 " fill-opacity="1" fill-rule="nonzero"/><path fill="rgb(27.839661%, 14.509583%, 3.138733%)" d="M 340.765625 192.019531 C 340.765625 194.515625 340.703125 197.011719 340.578125 199.507812 C 340.457031 202 340.269531 204.492188 340.019531 206.976562 C 339.769531 209.460938 339.460938 211.941406 339.089844 214.410156 C 338.714844 216.882812 338.28125 219.339844 337.789062 221.792969 C 337.292969 224.242188 336.738281 226.675781 336.121094 229.097656 C 335.503906 231.523438 334.828125 233.929688 334.089844 236.320312 C 333.355469 238.707031 332.558594 241.078125 331.703125 243.429688 C 330.851562 245.78125 329.9375 248.113281 328.964844 250.417969 C 327.996094 252.726562 326.96875 255.007812 325.882812 257.265625 C 324.796875 259.523438 323.660156 261.753906 322.460938 263.957031 C 321.265625 266.160156 320.015625 268.332031 318.710938 270.472656 C 317.40625 272.617188 316.050781 274.726562 314.640625 276.800781 C 313.230469 278.878906 311.773438 280.921875 310.261719 282.925781 C 308.75 284.933594 307.1875 286.902344 305.578125 288.832031 C 303.96875 290.761719 302.3125 292.652344 300.609375 294.503906 C 298.90625 296.355469 297.15625 298.160156 295.363281 299.929688 C 293.570312 301.695312 291.734375 303.414062 289.851562 305.09375 C 287.972656 306.769531 286.054688 308.402344 284.089844 309.984375 C 282.128906 311.570312 280.132812 313.105469 278.09375 314.59375 C 276.054688 316.082031 273.980469 317.519531 271.871094 318.90625 C 269.761719 320.292969 267.621094 321.628906 265.445312 322.914062 C 263.269531 324.199219 261.0625 325.429688 258.824219 326.605469 C 256.585938 327.78125 254.320312 328.90625 252.027344 329.972656 C 249.734375 331.042969 247.417969 332.054688 245.074219 333.007812 C 242.730469 333.964844 240.363281 334.863281 237.972656 335.703125 C 235.585938 336.546875 233.175781 337.328125 230.75 338.054688 C 228.320312 338.777344 225.878906 339.445312 223.417969 340.050781 C 220.957031 340.660156 218.480469 341.207031 215.992188 341.691406 C 213.503906 342.179688 211.003906 342.605469 208.496094 342.972656 C 205.988281 343.339844 203.46875 343.644531 200.945312 343.890625 C 198.421875 344.136719 195.890625 344.320312 193.355469 344.441406 C 190.824219 344.5625 188.289062 344.625 185.75 344.625 C 183.214844 344.625 180.679688 344.5625 178.144531 344.441406 C 175.609375 344.320312 173.082031 344.136719 170.558594 343.890625 C 168.03125 343.644531 165.515625 343.339844 163.003906 342.972656 C 160.496094 342.605469 157.996094 342.179688 155.507812 341.691406 C 153.019531 341.207031 150.546875 340.660156 148.085938 340.050781 C 145.625 339.445312 143.179688 338.777344 140.753906 338.054688 C 138.324219 337.328125 135.917969 336.546875 133.527344 335.703125 C 131.140625 334.863281 128.773438 333.964844 126.429688 333.007812 C 124.085938 332.054688 121.765625 331.042969 119.472656 329.972656 C 117.179688 328.90625 114.914062 327.78125 112.675781 326.605469 C 110.441406 325.429688 108.234375 324.199219 106.058594 322.914062 C 103.882812 321.628906 101.738281 320.292969 99.628906 318.90625 C 97.519531 317.519531 95.445312 316.082031 93.410156 314.59375 C 91.371094 313.105469 89.371094 311.570312 87.410156 309.984375 C 85.449219 308.402344 83.527344 306.769531 81.648438 305.09375 C 79.769531 303.414062 77.933594 301.695312 76.136719 299.929688 C 74.34375 298.160156 72.59375 296.355469 70.890625 294.503906 C 69.1875 292.652344 67.53125 290.761719 65.921875 288.832031 C 64.3125 286.902344 62.753906 284.933594 61.242188 282.925781 C 59.730469 280.921875 58.269531 278.878906 56.859375 276.800781 C 55.449219 274.726562 54.09375 272.617188 52.789062 270.472656 C 51.484375 268.332031 50.234375 266.160156 49.039062 263.957031 C 47.84375 261.753906 46.703125 259.523438 45.617188 257.265625 C 44.535156 255.007812 43.507812 252.726562 42.535156 250.417969 C 41.5625 248.113281 40.652344 245.78125 39.796875 243.429688 C 38.941406 241.078125 38.148438 238.707031 37.410156 236.320312 C 36.671875 233.929688 35.996094 231.523438 35.382812 229.097656 C 34.765625 226.675781 34.207031 224.242188 33.714844 221.792969 C 33.21875 219.339844 32.785156 216.882812 32.414062 214.410156 C 32.039062 211.941406 31.730469 209.460938 31.480469 206.976562 C 31.234375 204.492188 31.046875 202 30.921875 199.507812 C 30.796875 197.011719 30.734375 194.515625 30.734375 192.019531 C 30.734375 189.523438 30.796875 187.027344 30.921875 184.53125 C 31.046875 182.035156 31.234375 179.546875 31.480469 177.0625 C 31.730469 174.574219 32.039062 172.097656 32.414062 169.628906 C 32.785156 167.15625 33.21875 164.695312 33.714844 162.246094 C 34.207031 159.796875 34.765625 157.363281 35.382812 154.9375 C 35.996094 152.515625 36.671875 150.109375 37.410156 147.71875 C 38.148438 145.328125 38.941406 142.960938 39.796875 140.609375 C 40.652344 138.257812 41.5625 135.925781 42.535156 133.621094 C 43.507812 131.3125 44.535156 129.027344 45.617188 126.773438 C 46.703125 124.515625 47.84375 122.285156 49.039062 120.082031 C 50.234375 117.878906 51.484375 115.707031 52.789062 113.5625 C 54.09375 111.421875 55.449219 109.3125 56.859375 107.234375 C 58.269531 105.160156 59.730469 103.117188 61.242188 101.113281 C 62.753906 99.105469 64.3125 97.136719 65.921875 95.207031 C 67.53125 93.277344 69.1875 91.386719 70.890625 89.535156 C 72.59375 87.683594 74.34375 85.875 76.136719 84.109375 C 77.933594 82.34375 79.769531 80.621094 81.648438 78.945312 C 83.527344 77.269531 85.449219 75.636719 87.410156 74.054688 C 89.371094 72.46875 91.371094 70.933594 93.410156 69.445312 C 95.445312 67.957031 97.519531 66.519531 99.628906 65.132812 C 101.738281 63.746094 103.882812 62.410156 106.058594 61.125 C 108.234375 59.839844 110.441406 58.609375 112.675781 57.433594 C 114.914062 56.253906 117.179688 55.132812 119.472656 54.066406 C 121.765625 52.996094 124.085938 51.984375 126.429688 51.03125 C 128.773438 50.074219 131.140625 49.175781 133.527344 48.332031 C 135.917969 47.492188 138.324219 46.710938 140.753906 45.984375 C 143.179688 45.257812 145.625 44.59375 148.085938 43.984375 C 150.546875 43.378906 153.019531 42.832031 155.507812 42.34375 C 157.996094 41.859375 160.496094 41.429688 163.003906 41.066406 C 165.515625 40.699219 168.03125 40.390625 170.558594 40.148438 C 173.082031 39.902344 175.609375 39.71875 178.144531 39.597656 C 180.679688 39.472656 183.214844 39.414062 185.75 39.414062 C 188.289062 39.414062 190.824219 39.472656 193.355469 39.597656 C 195.890625 39.71875 198.421875 39.902344 200.945312 40.148438 C 203.46875 40.390625 205.988281 40.699219 208.496094 41.066406 C 211.007812 41.429688 213.503906 41.859375 215.992188 42.34375 C 218.480469 42.832031 220.957031 43.378906 223.417969 43.984375 C 225.878906 44.59375 228.320312 45.257812 230.75 45.984375 C 233.175781 46.710938 235.585938 47.492188 237.972656 48.332031 C 240.363281 49.175781 242.730469 50.074219 245.074219 51.03125 C 247.417969 51.984375 249.734375 52.996094 252.027344 54.066406 C 254.320312 55.132812 256.585938 56.253906 258.824219 57.433594 C 261.0625 58.609375 263.269531 59.839844 265.445312 61.125 C 267.621094 62.410156 269.761719 63.742188 271.871094 65.132812 C 273.980469 66.519531 276.054688 67.957031 278.09375 69.445312 C 280.132812 70.933594 282.128906 72.46875 284.089844 74.054688 C 286.054688 75.636719 287.972656 77.269531 289.851562 78.945312 C 291.734375 80.621094 293.570312 82.34375 295.363281 84.109375 C 297.15625 85.875 298.90625 87.683594 300.609375 89.535156 C 302.3125 91.386719 303.96875 93.277344 305.578125 95.207031 C 307.1875 97.136719 308.75 99.105469 310.261719 101.113281 C 311.773438 103.117188 313.230469 105.160156 314.640625 107.234375 C 316.050781 109.3125 317.40625 111.421875 318.710938 113.5625 C 320.015625 115.707031 321.265625 117.878906 322.460938 120.082031 C 323.660156 122.285156 324.796875 124.515625 325.882812 126.773438 C 326.96875 129.027344 327.996094 131.3125 328.964844 133.621094 C 329.9375 135.925781 330.851562 138.257812 331.703125 140.609375 C 332.558594 142.960938 333.355469 145.328125 334.089844 147.71875 C 334.828125 150.109375 335.503906 152.515625 336.121094 154.9375 C 336.738281 157.363281 337.292969 159.796875 337.789062 162.246094 C 338.28125 164.695312 338.714844 167.15625 339.089844 169.628906 C 339.460938 172.097656 339.769531 174.574219 340.019531 177.0625 C 340.269531 179.546875 340.457031 182.035156 340.578125 184.53125 C 340.703125 187.027344 340.765625 189.523438 340.765625 192.019531 Z M 340.765625 192.019531 " fill-opacity="1" fill-rule="nonzero"/><g clip-path="url(#id7)"><path fill="rgb(44.709778%, 21.179199%, 3.529358%)" d="M 305.449219 204.101562 L 338.492188 149.535156 C 338.492188 149.535156 344.230469 140.128906 352.734375 145.574219 C 352.734375 145.574219 360.058594 147.949219 356.691406 160.726562 L 322.070312 217.371094 C 322.070312 217.371094 315.441406 227.074219 306.539062 223.015625 C 306.539062 223.015625 297.4375 217.273438 305.449219 204.101562 Z M 305.449219 204.101562 " fill-opacity="1" fill-rule="nonzero"/></g><path fill="rgb(44.709778%, 21.179199%, 3.529358%)" d="M 43.398438 243.714844 L 21.238281 183.996094 C 21.238281 183.996094 17.480469 173.699219 26.976562 170.332031 C 26.976562 170.332031 33.40625 166.074219 41.320312 176.570312 L 64.171875 238.859375 C 64.171875 238.859375 67.632812 250.148438 58.929688 254.605469 C 58.929688 254.605469 48.738281 258.074219 43.398438 243.714844 Z M 43.398438 243.714844 " fill-opacity="1" fill-rule="nonzero"/><path fill="rgb(44.709778%, 21.179199%, 3.529358%)" d="M 253.117188 227.769531 L 235.214844 166.566406 C 235.214844 166.566406 232.148438 155.972656 241.839844 153.296875 C 241.839844 153.296875 248.566406 149.535156 255.691406 160.527344 L 274.089844 224.304688 C 274.089844 224.304688 276.761719 235.789062 267.757812 239.652344 C 267.859375 239.75 257.472656 242.523438 253.117188 227.769531 Z M 253.117188 227.769531 " fill-opacity="1" fill-rule="nonzero"/><path fill="rgb(44.709778%, 21.179199%, 3.529358%)" d="M 165.867188 237.671875 L 147.960938 176.472656 C 147.960938 176.472656 144.894531 165.875 154.589844 163.203125 C 154.589844 163.203125 161.316406 159.4375 168.4375 170.429688 L 186.839844 234.207031 C 186.839844 234.207031 189.511719 245.695312 180.507812 249.554688 C 180.605469 249.554688 170.21875 252.328125 165.867188 237.671875 Z M 165.867188 237.671875 " fill-opacity="1" fill-rule="nonzero"/><path fill="rgb(44.709778%, 21.179199%, 3.529358%)" d="M 283.390625 215.984375 L 267.167969 185.976562 C 267.167969 185.976562 264.394531 180.828125 269.046875 178.453125 C 269.046875 178.453125 272.011719 175.777344 276.960938 180.828125 L 293.679688 212.121094 C 293.679688 212.121094 296.347656 217.765625 292.195312 220.738281 C 292.390625 220.738281 287.347656 223.214844 283.390625 215.984375 Z M 283.390625 215.984375 " fill-opacity="1" fill-rule="nonzero"/><g clip-path="url(#id8)"><path fill="rgb(100%, 50.19989%, 67.059326%)" d="M 89.003906 351.753906 L 43.695312 202.617188 L 17.082031 199.445312 L 71.691406 349.875 Z M 89.003906 351.753906 " fill-opacity="1" fill-rule="nonzero"/></g><path fill="rgb(97.24884%, 73.329163%, 81.568909%)" d="M 88.707031 351.753906 L 41.816406 198.652344 L 75.25 203.902344 L 110.269531 351.65625 Z M 88.707031 351.753906 " fill-opacity="1" fill-rule="nonzero"/><path fill="rgb(100%, 50.19989%, 67.059326%)" d="M 110.371094 353.539062 L 73.074219 198.652344 L 109.480469 206.28125 L 133.617188 353.734375 Z M 110.371094 353.539062 " fill-opacity="1" fill-rule="nonzero"/><path fill="rgb(97.24884%, 73.329163%, 81.568909%)" d="M 133.320312 355.320312 L 107.898438 198.652344 L 140.542969 206.578125 L 154.886719 355.417969 Z M 133.320312 355.320312 " fill-opacity="1" fill-rule="nonzero"/><path fill="rgb(100%, 50.19989%, 67.059326%)" d="M 154.789062 356.410156 L 139.355469 198.652344 L 167.25 207.566406 L 173.1875 356.90625 Z M 154.789062 356.410156 " fill-opacity="1" fill-rule="nonzero"/><path fill="rgb(97.24884%, 73.329163%, 81.568909%)" d="M 170.8125 356.507812 L 163.988281 198.652344 C 163.988281 198.652344 185.75 211.527344 208.503906 198.652344 L 201.972656 356.90625 Z M 170.8125 356.507812 " fill-opacity="1" fill-rule="nonzero"/><path fill="rgb(100%, 50.19989%, 67.059326%)" d="M 197.523438 356.410156 L 203.753906 207.46875 L 234.816406 198.652344 L 218 356.113281 Z M 197.523438 356.410156 " fill-opacity="1" fill-rule="nonzero"/><path fill="rgb(97.24884%, 73.329163%, 81.568909%)" d="M 217.703125 355.222656 L 231.75 208.753906 L 264.296875 198.652344 L 239.070312 355.222656 Z M 217.703125 355.222656 " fill-opacity="1" fill-rule="nonzero"/><path fill="rgb(100%, 50.19989%, 67.059326%)" d="M 237.09375 353.835938 L 262.121094 208.558594 L 300.007812 198.652344 L 261.625 353.835938 Z M 237.09375 353.835938 " fill-opacity="1" fill-rule="nonzero"/><path fill="rgb(97.24884%, 73.329163%, 81.568909%)" d="M 262.320312 351.753906 L 296.152344 205.785156 L 329.882812 198.652344 L 283.6875 351.753906 Z M 262.320312 351.753906 " fill-opacity="1" fill-rule="nonzero"/><path fill="rgb(100%, 50.19989%, 67.059326%)" d="M 282.5 351.753906 L 326.816406 203.507812 L 353.921875 198.652344 L 299.316406 351.753906 Z M 282.5 351.753906 " fill-opacity="1" fill-rule="nonzero"/><path fill="rgb(44.709778%, 21.179199%, 3.529358%)" d="M 85.539062 154.683594 L 93.058594 121.410156 C 93.058594 121.410156 94.34375 115.667969 99.488281 116.953125 C 99.488281 116.953125 103.445312 116.953125 103.941406 123.984375 L 96.027344 158.546875 C 96.027344 158.546875 94.34375 164.585938 89.300781 163.992188 C 89.199219 164.191406 83.757812 162.707031 85.539062 154.683594 Z M 85.539062 154.683594 " fill-opacity="1" fill-rule="nonzero"/><path fill="rgb(44.709778%, 21.179199%, 3.529358%)" d="M 53.785156 177.460938 L 68.226562 116.558594 C 68.226562 116.558594 70.800781 106.058594 80.496094 108.535156 C 80.496094 108.535156 88.210938 108.535156 89.003906 121.410156 L 73.667969 184.691406 C 73.667969 184.691406 70.402344 195.78125 60.710938 194.691406 C 60.710938 194.792969 50.324219 192.117188 53.785156 177.460938 Z M 53.785156 177.460938 " fill-opacity="1" fill-rule="nonzero"/><path fill="rgb(44.709778%, 21.179199%, 3.529358%)" d="M 32.8125 136.5625 L 58.433594 78.132812 C 58.433594 78.132812 62.886719 68.132812 72.085938 72.292969 C 72.085938 72.292969 79.605469 73.675781 78.023438 86.847656 L 51.015625 147.457031 C 51.015625 147.457031 45.671875 157.953125 36.375 155.082031 C 36.375 155.277344 26.679688 150.625 32.8125 136.5625 Z M 32.8125 136.5625 " fill-opacity="1" fill-rule="nonzero"/><path fill="rgb(44.709778%, 21.179199%, 3.529358%)" d="M 123.429688 153.890625 L 153.402344 97.644531 C 153.402344 97.644531 158.644531 87.9375 167.449219 92.890625 C 167.449219 92.890625 174.867188 94.871094 172.296875 107.84375 L 140.839844 166.269531 C 140.839844 166.269531 134.707031 176.371094 125.605469 172.808594 C 125.503906 172.707031 116.207031 167.460938 123.429688 153.890625 Z M 123.429688 153.890625 " fill-opacity="1" fill-rule="nonzero"/><path fill="rgb(44.709778%, 21.179199%, 3.529358%)" d="M 190.695312 182.710938 L 223.738281 128.144531 C 223.738281 128.144531 229.476562 118.738281 237.984375 124.183594 C 237.984375 124.183594 245.304688 126.558594 241.941406 139.335938 L 207.316406 195.980469 C 207.316406 195.980469 200.6875 205.683594 191.785156 201.625 C 191.785156 201.625 182.78125 195.78125 190.695312 182.710938 Z M 190.695312 182.710938 " fill-opacity="1" fill-rule="nonzero"/><path fill="rgb(44.709778%, 21.179199%, 3.529358%)" d="M 180.507812 149.238281 L 176.945312 85.5625 C 176.945312 85.5625 176.351562 74.570312 186.441406 74.171875 C 186.441406 74.171875 193.863281 71.992188 198.3125 84.472656 L 201.679688 150.824219 C 201.679688 150.824219 201.679688 162.605469 192.082031 164.289062 C 192.082031 164.191406 181.398438 164.488281 180.507812 149.238281 Z M 180.507812 149.238281 " fill-opacity="1" fill-rule="nonzero"/><path fill="rgb(44.709778%, 21.179199%, 3.529358%)" d="M 109.972656 122.003906 L 86.824219 62.585938 C 86.824219 62.585938 82.867188 52.285156 92.367188 48.820312 C 92.367188 48.820312 98.695312 44.464844 106.808594 54.863281 L 130.648438 116.855469 C 130.648438 116.855469 134.308594 128.046875 125.703125 132.601562 C 125.703125 132.601562 115.613281 136.265625 109.972656 122.003906 Z M 109.972656 122.003906 " fill-opacity="1" fill-rule="nonzero"/><path fill="rgb(44.709778%, 21.179199%, 3.529358%)" d="M 325.828125 120.816406 L 283.585938 72.984375 C 283.585938 72.984375 276.367188 64.664062 283.984375 58.128906 C 283.984375 58.128906 288.433594 51.890625 299.613281 58.824219 L 343.339844 108.734375 C 343.339844 108.734375 350.660156 117.945312 344.128906 125.273438 C 344.230469 125.371094 336.019531 132.304688 325.828125 120.816406 Z M 325.828125 120.816406 " fill-opacity="1" fill-rule="nonzero"/><path fill="rgb(44.709778%, 21.179199%, 3.529358%)" d="M 281.113281 178.253906 L 251.042969 122.003906 C 251.042969 122.003906 245.898438 112.300781 254.898438 107.742188 C 254.898438 107.742188 260.636719 102.695312 269.9375 112.003906 L 301 170.628906 C 301 170.628906 305.945312 181.324219 297.933594 186.871094 C 297.933594 186.96875 288.335938 191.820312 281.113281 178.253906 Z M 281.113281 178.253906 " fill-opacity="1" fill-rule="nonzero"/><path fill="rgb(44.709778%, 21.179199%, 3.529358%)" d="M 91.871094 174.492188 L 108.492188 143.296875 C 108.492188 143.296875 111.359375 137.949219 116.304688 140.621094 C 116.304688 140.621094 120.460938 141.710938 118.976562 148.941406 L 101.464844 181.421875 C 101.464844 181.421875 98.101562 186.96875 93.058594 185.085938 C 93.058594 184.890625 87.914062 182.015625 91.871094 174.492188 Z M 91.871094 174.492188 " fill-opacity="1" fill-rule="nonzero"/><path fill="rgb(44.709778%, 21.179199%, 3.529358%)" d="M 208.109375 82.589844 L 226.210938 52.1875 C 226.210938 52.1875 229.375 46.9375 234.125 49.910156 C 234.125 49.910156 238.179688 51.199219 236.402344 58.328125 L 217.40625 89.917969 C 217.40625 89.917969 213.746094 95.363281 208.800781 93.085938 C 208.800781 93.085938 203.753906 89.917969 208.109375 82.589844 Z M 208.109375 82.589844 " fill-opacity="1" fill-rule="nonzero"/><path fill="rgb(44.709778%, 21.179199%, 3.529358%)" d="M 86.429688 99.425781 L 74.953125 67.339844 C 74.953125 67.339844 72.976562 61.792969 78.023438 60.210938 C 78.023438 60.210938 81.386719 58.03125 85.539062 63.773438 L 97.3125 97.246094 C 97.3125 97.246094 99.09375 103.289062 94.542969 105.464844 C 94.542969 105.464844 89.199219 107.148438 86.429688 99.425781 Z M 86.429688 99.425781 " fill-opacity="1" fill-rule="nonzero"/><path fill="rgb(44.709778%, 21.179199%, 3.529358%)" d="M 173.089844 172.410156 L 161.613281 140.324219 C 161.613281 140.324219 159.632812 134.78125 164.679688 133.195312 C 164.679688 133.195312 168.042969 131.015625 172.199219 136.761719 L 183.96875 170.230469 C 183.96875 170.230469 185.75 176.273438 181.199219 178.453125 C 181.199219 178.550781 175.859375 180.136719 173.089844 172.410156 Z M 173.089844 172.410156 " fill-opacity="1" fill-rule="nonzero"/><path fill="rgb(44.709778%, 21.179199%, 3.529358%)" d="M 295.457031 148.644531 L 278.046875 119.332031 C 278.046875 119.332031 275.082031 114.28125 279.628906 111.707031 C 279.628906 111.707031 282.5 108.933594 287.644531 113.785156 L 305.648438 144.386719 C 305.648438 144.386719 308.617188 149.929688 304.558594 153 C 304.558594 153.101562 299.710938 155.773438 295.457031 148.644531 Z M 295.457031 148.644531 " fill-opacity="1" fill-rule="nonzero"/><path fill="rgb(44.709778%, 21.179199%, 3.529358%)" d="M 120.363281 67.734375 L 125.503906 33.964844 C 125.503906 33.964844 126.394531 28.125 131.539062 29.113281 C 131.539062 29.113281 135.496094 28.816406 136.484375 35.847656 L 130.945312 70.90625 C 130.945312 70.90625 129.660156 77.042969 124.613281 76.847656 C 124.613281 76.945312 119.175781 75.855469 120.363281 67.734375 Z M 120.363281 67.734375 " fill-opacity="1" fill-rule="nonzero"/><path fill="rgb(44.709778%, 21.179199%, 3.529358%)" d="M 206.523438 127.550781 L 216.617188 94.96875 C 216.617188 94.96875 218.394531 89.324219 223.34375 91.105469 C 223.34375 91.105469 227.300781 91.402344 227.199219 98.535156 L 216.515625 132.402344 C 216.515625 132.402344 214.339844 138.34375 209.394531 137.355469 C 209.296875 137.253906 204.050781 135.375 206.523438 127.550781 Z M 206.523438 127.550781 " fill-opacity="1" fill-rule="nonzero"/><path fill="rgb(44.709778%, 21.179199%, 3.529358%)" d="M 265.78125 77.242188 L 265.78125 43.078125 C 265.78125 43.078125 265.78125 37.234375 271.023438 37.332031 C 271.023438 37.332031 274.882812 36.441406 276.859375 43.273438 L 276.664062 78.828125 C 276.664062 78.828125 276.367188 85.164062 271.320312 85.660156 C 271.421875 85.757812 265.78125 85.460938 265.78125 77.242188 Z M 265.78125 77.242188 " fill-opacity="1" fill-rule="nonzero"/><path fill="rgb(44.709778%, 21.179199%, 3.529358%)" d="M 306.339844 174.195312 L 316.628906 141.710938 C 316.628906 141.710938 318.410156 136.066406 323.355469 137.847656 C 323.355469 137.847656 327.3125 138.144531 327.113281 145.277344 L 316.234375 179.046875 C 316.234375 179.046875 314.054688 184.988281 309.011719 183.898438 C 309.109375 183.996094 303.867188 182.015625 306.339844 174.195312 Z M 306.339844 174.195312 " fill-opacity="1" fill-rule="nonzero"/><path fill="rgb(44.709778%, 21.179199%, 3.529358%)" d="M 228.882812 97.644531 L 244.214844 35.75 C 244.214844 35.75 246.886719 25.054688 256.679688 27.726562 C 256.679688 27.726562 264.394531 27.828125 264.988281 40.996094 L 248.765625 105.367188 C 248.765625 105.367188 245.304688 116.65625 235.609375 115.371094 C 235.511719 115.371094 225.121094 112.496094 228.882812 97.644531 Z M 228.882812 97.644531 " fill-opacity="1" fill-rule="nonzero"/><g clip-path="url(#id9)"><path fill="rgb(44.709778%, 21.179199%, 3.529358%)" d="M 129.5625 88.433594 L 144.894531 26.539062 C 144.894531 26.539062 147.566406 15.84375 157.359375 18.515625 C 157.359375 18.515625 165.074219 18.617188 165.667969 31.789062 L 149.445312 96.15625 C 149.445312 96.15625 145.984375 107.445312 136.289062 106.160156 C 136.1875 106.257812 125.800781 103.386719 129.5625 88.433594 Z M 129.5625 88.433594 " fill-opacity="1" fill-rule="nonzero"/></g><g clip-path="url(#id10)"><path fill="rgb(44.709778%, 21.179199%, 3.529358%)" d="M 170.8125 58.128906 L 222.550781 20.992188 C 222.550781 20.992188 231.554688 14.65625 237.191406 22.972656 C 237.191406 22.972656 242.929688 28.023438 234.917969 38.523438 L 180.804688 76.945312 C 180.804688 76.945312 170.914062 83.285156 164.285156 76.054688 C 164.480469 75.957031 158.347656 67.042969 170.8125 58.128906 Z M 170.8125 58.128906 " fill-opacity="1" fill-rule="nonzero"/></g><path fill="rgb(44.709778%, 21.179199%, 3.529358%)" d="M 168.339844 44.265625 L 195.742188 24.558594 C 195.742188 24.558594 200.492188 21.191406 203.558594 25.546875 C 203.558594 25.546875 206.625 28.222656 202.371094 33.769531 L 173.78125 54.070312 C 173.78125 54.070312 168.539062 57.4375 165.074219 53.574219 C 164.878906 53.773438 161.710938 49.019531 168.339844 44.265625 Z M 168.339844 44.265625 " fill-opacity="1" fill-rule="nonzero"/><path fill="rgb(44.709778%, 21.179199%, 3.529358%)" d="M 109.777344 176.175781 L 145.09375 178.15625 C 145.09375 178.15625 151.226562 178.550781 150.730469 184.097656 C 150.730469 184.097656 151.425781 188.355469 144.300781 190.039062 L 107.601562 187.761719 C 107.601562 187.761719 101.070312 187.066406 100.773438 181.621094 C 100.773438 181.621094 101.269531 175.679688 109.777344 176.175781 Z M 109.777344 176.175781 " fill-opacity="1" fill-rule="nonzero"/><path fill="rgb(44.709778%, 21.179199%, 3.529358%)" d="M 290.808594 103.78125 L 257.273438 97.347656 C 257.273438 97.347656 251.535156 96.15625 252.722656 91.105469 C 252.722656 91.105469 252.625 87.144531 259.648438 86.453125 L 294.46875 93.285156 C 294.46875 93.285156 300.601562 94.769531 300.109375 99.820312 C 300.109375 99.921875 298.820312 105.367188 290.808594 103.78125 Z M 290.808594 103.78125 " fill-opacity="1" fill-rule="nonzero"/><path fill="rgb(44.709778%, 21.179199%, 3.529358%)" d="M 330.082031 137.15625 L 301.296875 118.835938 C 301.296875 118.835938 296.347656 115.667969 299.316406 111.308594 C 299.316406 111.308594 300.703125 107.546875 307.429688 109.527344 L 337.304688 128.738281 C 337.304688 128.738281 342.449219 132.402344 340.171875 136.957031 C 340.171875 136.957031 337.007812 141.511719 330.082031 137.15625 Z M 330.082031 137.15625 " fill-opacity="1" fill-rule="nonzero"/><path fill="rgb(100%, 50.19989%, 67.059326%)" d="M 74.066406 227.867188 C 74.066406 228.308594 74.019531 228.75 73.933594 229.183594 C 73.847656 229.617188 73.722656 230.035156 73.550781 230.445312 C 73.382812 230.855469 73.175781 231.242188 72.929688 231.609375 C 72.683594 231.976562 72.40625 232.316406 72.09375 232.628906 C 71.78125 232.941406 71.441406 233.222656 71.074219 233.46875 C 70.707031 233.714844 70.320312 233.921875 69.910156 234.089844 C 69.503906 234.257812 69.082031 234.386719 68.648438 234.472656 C 68.214844 234.558594 67.777344 234.601562 67.335938 234.601562 C 66.894531 234.601562 66.457031 234.558594 66.023438 234.472656 C 65.59375 234.386719 65.171875 234.257812 64.761719 234.089844 C 64.355469 233.921875 63.96875 233.714844 63.601562 233.46875 C 63.234375 233.222656 62.894531 232.941406 62.582031 232.628906 C 62.269531 232.316406 61.988281 231.976562 61.746094 231.609375 C 61.5 231.242188 61.292969 230.855469 61.121094 230.445312 C 60.953125 230.035156 60.824219 229.617188 60.738281 229.183594 C 60.652344 228.75 60.609375 228.308594 60.609375 227.867188 C 60.609375 227.425781 60.652344 226.988281 60.738281 226.554688 C 60.824219 226.121094 60.953125 225.699219 61.121094 225.292969 C 61.292969 224.882812 61.5 224.496094 61.746094 224.125 C 61.988281 223.757812 62.269531 223.417969 62.582031 223.105469 C 62.894531 222.792969 63.234375 222.515625 63.601562 222.269531 C 63.96875 222.023438 64.355469 221.816406 64.761719 221.648438 C 65.171875 221.476562 65.59375 221.351562 66.023438 221.261719 C 66.457031 221.175781 66.894531 221.132812 67.335938 221.132812 C 67.777344 221.132812 68.214844 221.175781 68.648438 221.261719 C 69.082031 221.351562 69.503906 221.476562 69.910156 221.648438 C 70.320312 221.816406 70.707031 222.023438 71.074219 222.269531 C 71.441406 222.515625 71.78125 222.792969 72.09375 223.105469 C 72.40625 223.417969 72.683594 223.757812 72.929688 224.125 C 73.175781 224.496094 73.382812 224.882812 73.550781 225.292969 C 73.722656 225.699219 73.847656 226.121094 73.933594 226.554688 C 74.019531 226.988281 74.066406 227.425781 74.066406 227.867188 Z M 74.066406 227.867188 " fill-opacity="1" fill-rule="nonzero"/><path fill="rgb(100%, 50.19989%, 67.059326%)" d="M 87.914062 281.9375 C 87.914062 285.601562 84.945312 288.671875 81.1875 288.671875 C 77.527344 288.671875 74.460938 285.703125 74.460938 281.9375 C 74.460938 278.273438 77.429688 275.203125 81.1875 275.203125 C 84.945312 275.203125 87.914062 278.175781 87.914062 281.9375 Z M 87.914062 281.9375 " fill-opacity="1" fill-rule="nonzero"/><path fill="rgb(100%, 50.19989%, 67.059326%)" d="M 135.597656 224.007812 C 135.597656 224.449219 135.554688 224.886719 135.464844 225.320312 C 135.378906 225.753906 135.253906 226.175781 135.082031 226.582031 C 134.914062 226.992188 134.707031 227.378906 134.460938 227.746094 C 134.214844 228.113281 133.9375 228.453125 133.625 228.769531 C 133.3125 229.082031 132.972656 229.359375 132.605469 229.605469 C 132.238281 229.851562 131.851562 230.058594 131.441406 230.226562 C 131.035156 230.398438 130.613281 230.523438 130.179688 230.609375 C 129.75 230.695312 129.3125 230.738281 128.867188 230.738281 C 128.425781 230.738281 127.988281 230.695312 127.554688 230.609375 C 127.125 230.523438 126.703125 230.398438 126.292969 230.226562 C 125.886719 230.058594 125.5 229.851562 125.132812 229.605469 C 124.765625 229.359375 124.425781 229.082031 124.113281 228.769531 C 123.800781 228.453125 123.519531 228.113281 123.277344 227.746094 C 123.03125 227.378906 122.824219 226.992188 122.652344 226.582031 C 122.484375 226.175781 122.359375 225.753906 122.269531 225.320312 C 122.183594 224.886719 122.140625 224.449219 122.140625 224.007812 C 122.140625 223.5625 122.183594 223.125 122.269531 222.691406 C 122.359375 222.257812 122.484375 221.835938 122.652344 221.429688 C 122.824219 221.019531 123.03125 220.632812 123.277344 220.265625 C 123.519531 219.898438 123.800781 219.558594 124.113281 219.246094 C 124.425781 218.929688 124.765625 218.652344 125.132812 218.40625 C 125.5 218.160156 125.886719 217.953125 126.292969 217.785156 C 126.703125 217.617188 127.125 217.488281 127.554688 217.402344 C 127.988281 217.316406 128.425781 217.273438 128.867188 217.273438 C 129.3125 217.273438 129.75 217.316406 130.179688 217.402344 C 130.613281 217.488281 131.035156 217.617188 131.441406 217.785156 C 131.851562 217.953125 132.238281 218.160156 132.605469 218.40625 C 132.972656 218.652344 133.3125 218.929688 133.625 219.246094 C 133.9375 219.558594 134.214844 219.898438 134.460938 220.265625 C 134.707031 220.632812 134.914062 221.019531 135.082031 221.429688 C 135.253906 221.835938 135.378906 222.257812 135.464844 222.691406 C 135.554688 223.125 135.597656 223.5625 135.597656 224.007812 Z M 135.597656 224.007812 " fill-opacity="1" fill-rule="nonzero"/><path fill="rgb(100%, 50.19989%, 67.059326%)" d="M 140.34375 281.246094 C 140.34375 281.6875 140.300781 282.125 140.214844 282.558594 C 140.128906 282.992188 140 283.414062 139.832031 283.824219 C 139.664062 284.230469 139.457031 284.621094 139.210938 284.988281 C 138.964844 285.355469 138.6875 285.695312 138.375 286.007812 C 138.0625 286.320312 137.722656 286.597656 137.355469 286.84375 C 136.988281 287.089844 136.601562 287.296875 136.191406 287.46875 C 135.785156 287.636719 135.363281 287.765625 134.929688 287.851562 C 134.496094 287.9375 134.058594 287.980469 133.617188 287.980469 C 133.175781 287.980469 132.738281 287.9375 132.304688 287.851562 C 131.871094 287.765625 131.449219 287.636719 131.042969 287.46875 C 130.636719 287.296875 130.246094 287.089844 129.878906 286.84375 C 129.511719 286.597656 129.171875 286.320312 128.859375 286.007812 C 128.546875 285.695312 128.269531 285.355469 128.023438 284.988281 C 127.777344 284.621094 127.570312 284.230469 127.402344 283.824219 C 127.234375 283.414062 127.105469 282.992188 127.019531 282.558594 C 126.933594 282.125 126.890625 281.6875 126.890625 281.246094 C 126.890625 280.804688 126.933594 280.367188 127.019531 279.933594 C 127.105469 279.5 127.234375 279.078125 127.402344 278.667969 C 127.570312 278.261719 127.777344 277.871094 128.023438 277.503906 C 128.269531 277.136719 128.546875 276.796875 128.859375 276.484375 C 129.171875 276.171875 129.511719 275.890625 129.878906 275.648438 C 130.246094 275.402344 130.636719 275.195312 131.042969 275.023438 C 131.449219 274.855469 131.871094 274.726562 132.304688 274.640625 C 132.738281 274.554688 133.175781 274.511719 133.617188 274.511719 C 134.058594 274.511719 134.496094 274.554688 134.929688 274.640625 C 135.363281 274.726562 135.785156 274.855469 136.191406 275.023438 C 136.601562 275.195312 136.988281 275.402344 137.355469 275.648438 C 137.722656 275.890625 138.0625 276.171875 138.375 276.484375 C 138.6875 276.796875 138.964844 277.136719 139.210938 277.503906 C 139.457031 277.871094 139.664062 278.261719 139.832031 278.667969 C 140 279.078125 140.128906 279.5 140.214844 279.933594 C 140.300781 280.367188 140.34375 280.804688 140.34375 281.246094 Z M 140.34375 281.246094 " fill-opacity="1" fill-rule="nonzero"/><path fill="rgb(100%, 50.19989%, 67.059326%)" d="M 193.171875 224.007812 C 193.171875 224.449219 193.128906 224.886719 193.039062 225.320312 C 192.953125 225.753906 192.828125 226.175781 192.65625 226.582031 C 192.488281 226.992188 192.28125 227.378906 192.035156 227.746094 C 191.792969 228.113281 191.511719 228.453125 191.199219 228.769531 C 190.886719 229.082031 190.546875 229.359375 190.179688 229.605469 C 189.8125 229.851562 189.425781 230.058594 189.019531 230.226562 C 188.609375 230.398438 188.1875 230.523438 187.753906 230.609375 C 187.324219 230.695312 186.886719 230.738281 186.441406 230.738281 C 186 230.738281 185.5625 230.695312 185.132812 230.609375 C 184.699219 230.523438 184.277344 230.398438 183.867188 230.226562 C 183.460938 230.058594 183.074219 229.851562 182.707031 229.605469 C 182.339844 229.359375 182 229.082031 181.6875 228.769531 C 181.375 228.453125 181.09375 228.113281 180.851562 227.746094 C 180.605469 227.378906 180.398438 226.992188 180.226562 226.582031 C 180.058594 226.175781 179.933594 225.753906 179.84375 225.320312 C 179.757812 224.886719 179.714844 224.449219 179.714844 224.007812 C 179.714844 223.5625 179.757812 223.125 179.84375 222.691406 C 179.933594 222.257812 180.058594 221.835938 180.226562 221.429688 C 180.398438 221.019531 180.605469 220.632812 180.851562 220.265625 C 181.09375 219.898438 181.375 219.558594 181.6875 219.246094 C 182 218.929688 182.339844 218.652344 182.707031 218.40625 C 183.074219 218.160156 183.460938 217.953125 183.867188 217.785156 C 184.277344 217.617188 184.699219 217.488281 185.132812 217.402344 C 185.5625 217.316406 186 217.273438 186.441406 217.273438 C 186.886719 217.273438 187.324219 217.316406 187.753906 217.402344 C 188.1875 217.488281 188.609375 217.617188 189.019531 217.785156 C 189.425781 217.953125 189.8125 218.160156 190.179688 218.40625 C 190.546875 218.652344 190.886719 218.929688 191.199219 219.246094 C 191.511719 219.558594 191.792969 219.898438 192.035156 220.265625 C 192.28125 220.632812 192.488281 221.019531 192.65625 221.429688 C 192.828125 221.835938 192.953125 222.257812 193.039062 222.691406 C 193.128906 223.125 193.171875 223.5625 193.171875 224.007812 Z M 193.171875 224.007812 " fill-opacity="1" fill-rule="nonzero"/><path fill="rgb(100%, 50.19989%, 67.059326%)" d="M 196.039062 284.414062 C 196.039062 284.855469 195.996094 285.292969 195.910156 285.726562 C 195.824219 286.164062 195.695312 286.582031 195.527344 286.992188 C 195.359375 287.398438 195.152344 287.789062 194.90625 288.15625 C 194.660156 288.523438 194.382812 288.863281 194.070312 289.175781 C 193.757812 289.488281 193.417969 289.769531 193.050781 290.015625 C 192.683594 290.257812 192.292969 290.46875 191.886719 290.636719 C 191.476562 290.804688 191.058594 290.933594 190.625 291.019531 C 190.191406 291.105469 189.753906 291.148438 189.3125 291.148438 C 188.871094 291.148438 188.433594 291.105469 188 291.019531 C 187.566406 290.933594 187.144531 290.804688 186.738281 290.636719 C 186.328125 290.46875 185.941406 290.257812 185.574219 290.015625 C 185.207031 289.769531 184.867188 289.488281 184.554688 289.175781 C 184.242188 288.863281 183.964844 288.523438 183.71875 288.15625 C 183.472656 287.789062 183.265625 287.398438 183.097656 286.992188 C 182.929688 286.582031 182.800781 286.164062 182.714844 285.726562 C 182.628906 285.292969 182.585938 284.855469 182.585938 284.414062 C 182.585938 283.972656 182.628906 283.535156 182.714844 283.101562 C 182.800781 282.667969 182.929688 282.246094 183.097656 281.835938 C 183.265625 281.429688 183.472656 281.042969 183.71875 280.671875 C 183.964844 280.304688 184.242188 279.964844 184.554688 279.652344 C 184.867188 279.339844 185.207031 279.0625 185.574219 278.816406 C 185.941406 278.570312 186.328125 278.363281 186.738281 278.191406 C 187.144531 278.023438 187.566406 277.894531 188 277.808594 C 188.433594 277.722656 188.871094 277.679688 189.3125 277.679688 C 189.753906 277.679688 190.191406 277.722656 190.625 277.808594 C 191.058594 277.894531 191.476562 278.023438 191.886719 278.191406 C 192.292969 278.363281 192.683594 278.570312 193.050781 278.816406 C 193.417969 279.0625 193.757812 279.339844 194.070312 279.652344 C 194.382812 279.964844 194.660156 280.304688 194.90625 280.671875 C 195.152344 281.042969 195.359375 281.429688 195.527344 281.835938 C 195.695312 282.246094 195.824219 282.667969 195.910156 283.101562 C 195.996094 283.535156 196.039062 283.972656 196.039062 284.414062 Z M 196.039062 284.414062 " fill-opacity="1" fill-rule="nonzero"/><path fill="rgb(100%, 50.19989%, 67.059326%)" d="M 253.140625 223.007812 C 253.207031 223.441406 253.226562 223.882812 253.207031 224.324219 C 253.1875 224.765625 253.121094 225.203125 253.015625 225.628906 C 252.910156 226.058594 252.761719 226.472656 252.574219 226.875 C 252.382812 227.273438 252.160156 227.652344 251.894531 228.007812 C 251.632812 228.363281 251.339844 228.6875 251.011719 228.984375 C 250.683594 229.285156 250.332031 229.546875 249.953125 229.773438 C 249.574219 230 249.175781 230.191406 248.761719 230.339844 C 248.347656 230.488281 247.917969 230.597656 247.484375 230.660156 C 247.046875 230.726562 246.605469 230.75 246.164062 230.726562 C 245.726562 230.707031 245.289062 230.644531 244.859375 230.535156 C 244.433594 230.429688 244.019531 230.28125 243.621094 230.09375 C 243.21875 229.90625 242.84375 229.679688 242.488281 229.414062 C 242.132812 229.152344 241.804688 228.859375 241.507812 228.53125 C 241.210938 228.203125 240.949219 227.851562 240.722656 227.472656 C 240.496094 227.09375 240.304688 226.695312 240.15625 226.277344 C 240.007812 225.863281 239.902344 225.433594 239.835938 225 C 239.769531 224.5625 239.746094 224.121094 239.769531 223.679688 C 239.789062 223.238281 239.855469 222.800781 239.960938 222.375 C 240.066406 221.945312 240.214844 221.53125 240.402344 221.128906 C 240.59375 220.730469 240.816406 220.351562 241.082031 219.996094 C 241.34375 219.640625 241.636719 219.316406 241.964844 219.019531 C 242.292969 218.71875 242.644531 218.457031 243.023438 218.230469 C 243.402344 218.003906 243.796875 217.8125 244.214844 217.664062 C 244.628906 217.515625 245.054688 217.40625 245.492188 217.34375 C 245.929688 217.277344 246.367188 217.253906 246.808594 217.277344 C 247.25 217.296875 247.6875 217.359375 248.113281 217.46875 C 248.542969 217.574219 248.957031 217.722656 249.355469 217.910156 C 249.757812 218.101562 250.132812 218.324219 250.488281 218.589844 C 250.84375 218.851562 251.167969 219.148438 251.46875 219.472656 C 251.765625 219.800781 252.027344 220.152344 252.253906 220.53125 C 252.480469 220.914062 252.667969 221.308594 252.820312 221.726562 C 252.96875 222.140625 253.074219 222.570312 253.140625 223.007812 Z M 253.140625 223.007812 " fill-opacity="1" fill-rule="nonzero"/><path fill="rgb(100%, 50.19989%, 67.059326%)" d="M 245.996094 283.917969 C 245.996094 284.363281 245.953125 284.800781 245.867188 285.234375 C 245.78125 285.667969 245.652344 286.089844 245.484375 286.496094 C 245.316406 286.90625 245.109375 287.292969 244.863281 287.660156 C 244.617188 288.027344 244.339844 288.367188 244.027344 288.679688 C 243.714844 288.992188 243.375 289.273438 243.007812 289.519531 C 242.640625 289.765625 242.25 289.972656 241.84375 290.140625 C 241.433594 290.308594 241.015625 290.4375 240.582031 290.523438 C 240.148438 290.609375 239.710938 290.652344 239.269531 290.652344 C 238.828125 290.652344 238.390625 290.609375 237.957031 290.523438 C 237.523438 290.4375 237.101562 290.308594 236.695312 290.140625 C 236.285156 289.972656 235.898438 289.765625 235.53125 289.519531 C 235.164062 289.273438 234.824219 288.992188 234.511719 288.679688 C 234.199219 288.367188 233.921875 288.027344 233.675781 287.660156 C 233.429688 287.292969 233.222656 286.90625 233.054688 286.496094 C 232.886719 286.089844 232.757812 285.667969 232.671875 285.234375 C 232.585938 284.800781 232.542969 284.363281 232.542969 283.917969 C 232.542969 283.476562 232.585938 283.039062 232.671875 282.605469 C 232.757812 282.171875 232.886719 281.75 233.054688 281.34375 C 233.222656 280.933594 233.429688 280.546875 233.675781 280.179688 C 233.921875 279.8125 234.199219 279.46875 234.511719 279.15625 C 234.824219 278.84375 235.164062 278.566406 235.53125 278.320312 C 235.898438 278.074219 236.285156 277.867188 236.695312 277.699219 C 237.101562 277.527344 237.523438 277.402344 237.957031 277.316406 C 238.390625 277.230469 238.828125 277.183594 239.269531 277.183594 C 239.710938 277.183594 240.148438 277.230469 240.582031 277.316406 C 241.015625 277.402344 241.433594 277.527344 241.84375 277.699219 C 242.25 277.867188 242.640625 278.074219 243.007812 278.320312 C 243.375 278.566406 243.714844 278.84375 244.027344 279.15625 C 244.339844 279.46875 244.617188 279.8125 244.863281 280.179688 C 245.109375 280.546875 245.316406 280.933594 245.484375 281.34375 C 245.652344 281.75 245.78125 282.171875 245.867188 282.605469 C 245.953125 283.039062 245.996094 283.476562 245.996094 283.917969 Z M 245.996094 283.917969 " fill-opacity="1" fill-rule="nonzero"/><path fill="rgb(100%, 50.19989%, 67.059326%)" d="M 313.464844 225.988281 C 313.464844 226.429688 313.421875 226.867188 313.332031 227.300781 C 313.246094 227.734375 313.121094 228.15625 312.949219 228.5625 C 312.78125 228.972656 312.574219 229.359375 312.328125 229.726562 C 312.082031 230.09375 311.804688 230.4375 311.492188 230.75 C 311.179688 231.0625 310.839844 231.339844 310.472656 231.585938 C 310.105469 231.832031 309.71875 232.039062 309.308594 232.207031 C 308.902344 232.378906 308.480469 232.503906 308.046875 232.589844 C 307.617188 232.675781 307.179688 232.71875 306.734375 232.722656 C 306.292969 232.71875 305.855469 232.675781 305.421875 232.589844 C 304.992188 232.503906 304.570312 232.378906 304.160156 232.207031 C 303.753906 232.039062 303.367188 231.832031 303 231.585938 C 302.632812 231.339844 302.292969 231.0625 301.980469 230.75 C 301.667969 230.4375 301.386719 230.09375 301.144531 229.726562 C 300.898438 229.359375 300.691406 228.972656 300.519531 228.5625 C 300.351562 228.15625 300.226562 227.734375 300.136719 227.300781 C 300.050781 226.867188 300.007812 226.429688 300.007812 225.988281 C 300.007812 225.542969 300.050781 225.105469 300.136719 224.671875 C 300.226562 224.238281 300.351562 223.816406 300.519531 223.410156 C 300.691406 223 300.898438 222.613281 301.144531 222.246094 C 301.386719 221.878906 301.667969 221.539062 301.980469 221.226562 C 302.292969 220.914062 302.632812 220.632812 303 220.386719 C 303.367188 220.140625 303.753906 219.933594 304.160156 219.765625 C 304.570312 219.597656 304.992188 219.46875 305.425781 219.382812 C 305.855469 219.296875 306.292969 219.253906 306.734375 219.253906 C 307.179688 219.253906 307.617188 219.296875 308.046875 219.382812 C 308.480469 219.46875 308.902344 219.597656 309.308594 219.765625 C 309.71875 219.933594 310.105469 220.140625 310.472656 220.386719 C 310.839844 220.632812 311.179688 220.914062 311.492188 221.226562 C 311.804688 221.539062 312.082031 221.878906 312.328125 222.246094 C 312.574219 222.613281 312.78125 223 312.949219 223.410156 C 313.121094 223.816406 313.246094 224.238281 313.332031 224.671875 C 313.421875 225.105469 313.464844 225.542969 313.464844 225.988281 Z M 313.464844 225.988281 " fill-opacity="1" fill-rule="nonzero"/><path fill="rgb(100%, 50.19989%, 67.059326%)" d="M 298.625 287.980469 C 298.625 288.421875 298.582031 288.859375 298.496094 289.292969 C 298.410156 289.726562 298.28125 290.148438 298.113281 290.558594 C 297.941406 290.964844 297.734375 291.351562 297.492188 291.722656 C 297.246094 292.089844 296.964844 292.429688 296.652344 292.742188 C 296.339844 293.054688 296 293.332031 295.632812 293.578125 C 295.265625 293.824219 294.878906 294.03125 294.472656 294.203125 C 294.0625 294.371094 293.644531 294.5 293.210938 294.585938 C 292.777344 294.671875 292.339844 294.714844 291.898438 294.714844 C 291.457031 294.714844 291.019531 294.671875 290.585938 294.585938 C 290.152344 294.5 289.730469 294.371094 289.324219 294.203125 C 288.914062 294.03125 288.527344 293.824219 288.160156 293.578125 C 287.792969 293.332031 287.453125 293.054688 287.140625 292.742188 C 286.828125 292.429688 286.550781 292.089844 286.304688 291.722656 C 286.058594 291.351562 285.851562 290.964844 285.683594 290.558594 C 285.511719 290.148438 285.386719 289.726562 285.300781 289.292969 C 285.214844 288.859375 285.171875 288.421875 285.171875 287.980469 C 285.171875 287.539062 285.214844 287.101562 285.300781 286.667969 C 285.386719 286.230469 285.511719 285.8125 285.683594 285.402344 C 285.851562 284.996094 286.058594 284.605469 286.304688 284.238281 C 286.550781 283.871094 286.828125 283.53125 287.140625 283.21875 C 287.453125 282.90625 287.792969 282.625 288.160156 282.378906 C 288.527344 282.136719 288.914062 281.925781 289.324219 281.757812 C 289.730469 281.589844 290.152344 281.460938 290.585938 281.375 C 291.019531 281.289062 291.457031 281.246094 291.898438 281.246094 C 292.339844 281.246094 292.777344 281.289062 293.210938 281.375 C 293.644531 281.460938 294.0625 281.589844 294.472656 281.757812 C 294.878906 281.925781 295.265625 282.136719 295.632812 282.378906 C 296 282.625 296.339844 282.90625 296.652344 283.21875 C 296.964844 283.53125 297.246094 283.871094 297.492188 284.238281 C 297.734375 284.605469 297.941406 284.996094 298.113281 285.402344 C 298.28125 285.8125 298.410156 286.230469 298.496094 286.667969 C 298.582031 287.101562 298.625 287.539062 298.625 287.980469 Z M 298.625 287.980469 " fill-opacity="1" fill-rule="nonzero"/></svg>